<svg xmlns="http://www.w3.org/2000/svg" >
    <symbol id="logo" viewBox="0 0 112.4454 47.8417">
        <title>Logo-100px</title>
        <polygon class="a" points="6.223 8.858 12.85 8.858 21.286 29.88 29.721 8.858 36.348 8.858 21.286 42.749 6.223 8.858"/>
        <rect class="b" x="39.6955" y="8.8581" width="5.4393" height="33.0544"/>
        <path class="a" d="M97.4442,36.743H84.8771l-2.4537,6.0063H76.0972L91.1609,8.8581l15.0618,33.8912H99.8964Zm-2.1523-5.2336-4.131-10.0383L87.0283,31.5094Z"/>
        <path class="a" d="M65.93,42.7493a15.7471,15.7471,0,0,0,7.6571-1.9478V33.79a10.3315,10.3315,0,0,1-7.7851,3.2452,11.2093,11.2093,0,0,1-11.2242-9.7669H48.9005A17.0165,17.0165,0,0,0,65.93,42.7493Z"/>
        <path class="a" d="M65.8462,14.5708a10.6634,10.6634,0,0,1,7.74,3.202V10.8044a15.7552,15.7552,0,0,0-7.6552-1.9463,16.9759,16.9759,0,0,0-17.031,15.4811h5.6831A11.2551,11.2551,0,0,1,65.8462,14.5708Z"/>
        <polygon class="a" points="38.022 5.092 27.498 5.092 27.498 5.095 27.495 5.095 20.449 22.814 21.389 25.176 28.666 6.875 37.241 6.875 38.022 5.095 38.022 5.092"/>
    </symbol>

    <symbol id="logo-v" viewBox="0 0 28 32">
        <path fill-rule="evenodd" clip-rule="evenodd" d="M0 3.19995H5.61716L12.7986 21.0489L19.98 3.19995H25.5972L12.7986 32L0 3.19995Z" fill="white"/>
        <path fill-rule="evenodd" clip-rule="evenodd" d="M27.0192 0H18.0602L12.0875 15.0756L12.8697 17.0667L19.0557 1.52889H26.3437L27.0192 0Z" fill="white"/>
    </symbol>

    <symbol id="whatsapp" viewBox="0 0 56 56">
        <circle r="28" transform="matrix(1 0 0 -1 28 28)" fill="#57CA65"/>
        <path fill-rule="evenodd" clip-rule="evenodd" d="M26.8252 10.1301C26.7846 10.1465 26.5958 10.1777 26.4056 10.1995C22.9433 10.5959 19.7971 11.9204 17.1088 14.1134C16.5394 14.5779 15.2975 15.8122 14.8184 16.3898C14.1696 17.1721 13.4912 18.1385 13.0614 18.8929C12.7862 19.376 12.2137 20.5475 12.029 21.0054C11.3301 22.7384 10.8976 24.6529 10.7967 26.4602C10.7779 26.7968 10.7528 27.1398 10.7409 27.2226C10.6932 27.5541 10.8631 29.6136 11.0083 30.4639C11.3094 32.2275 11.8438 33.8132 12.7156 35.5297L13.1573 36.3995L13.1536 36.6661C13.1503 36.9026 13.1218 37.0119 12.9015 37.6327C12.6518 38.336 11.7373 41.033 10.8326 43.7337C10.3029 45.3151 10.2328 45.6141 10.3741 45.6897C10.4894 45.7514 10.764 45.6877 11.825 45.3532C12.3465 45.1888 13.0092 44.9798 13.2977 44.8889C13.5861 44.7979 14.2312 44.5929 14.7312 44.4332C15.2312 44.2736 15.9235 44.0532 16.2697 43.9435C16.6158 43.8338 17.3081 43.6138 17.8081 43.4545C19.5785 42.8904 19.6503 42.8726 19.9199 42.932C20.0084 42.9516 20.3009 43.0713 20.5698 43.198C23.1066 44.3935 25.7076 44.9792 28.455 44.9738C30.5716 44.9696 32.8897 44.5187 34.871 43.726C39.6339 41.8204 43.3762 37.8827 44.9893 33.0794C45.3467 32.0151 45.5887 30.9629 45.7469 29.7858C45.797 29.4129 45.8525 29.0696 45.8702 29.023C45.9134 28.9095 45.9116 26.1974 45.8682 26.0406C45.8496 25.9733 45.7941 25.6193 45.7449 25.2539C45.2926 21.8966 43.9071 18.8069 41.6915 16.215C40.9951 15.4003 40.235 14.6749 39.2328 13.8684C38.7587 13.4869 37.6507 12.7382 37.1088 12.4332C34.9577 11.2225 32.7748 10.506 30.3605 10.2181C30.1105 10.1883 29.8604 10.1486 29.8046 10.1299C29.6792 10.0878 26.9294 10.088 26.8252 10.1301ZM29.8285 12.9629C30.556 13.0438 30.7387 13.0716 31.3238 13.1905C33.643 13.6618 35.9047 14.7516 37.779 16.3008C39.5814 17.7907 41.1596 19.9379 42.0335 22.0894C42.8699 24.1484 43.2491 26.58 43.0532 28.6281C42.9081 30.1459 42.7305 30.9922 42.2829 32.2996C41.1937 35.4809 38.9155 38.2816 35.9716 40.0586C35.3716 40.4208 34.6059 40.8054 33.8745 41.1119C31.7783 41.9903 29.169 42.37 26.9229 42.1235C25.5467 41.9725 24.8908 41.8334 23.6822 41.4364C22.836 41.1583 22.1213 40.8537 21.3746 40.4527C20.3162 39.8844 20.3654 39.9046 20.0479 39.9075C19.7988 39.9097 19.6751 39.9391 18.9795 40.1608C15.0046 41.4279 15.0969 41.4016 14.9116 41.3172C14.7103 41.2255 14.704 41.015 14.8871 40.4993C14.9622 40.2878 15.2956 39.3043 15.628 38.3139C16.181 36.6662 16.2324 36.4923 16.2325 36.2684C16.2327 35.9814 16.2168 35.9462 15.7506 35.2019C14.7195 33.5557 14.0422 31.7235 13.7212 29.7121C13.6396 29.2008 13.5071 27.4069 13.5401 27.2601C13.5504 27.2144 13.5747 26.9067 13.5942 26.5762C13.6887 24.9771 14.0457 23.4603 14.6957 21.8971C15.3468 20.3311 16.4225 18.7148 17.7177 17.3563C18.0897 16.9661 18.9295 16.2378 19.4969 15.8133C20.7473 14.8778 22.2869 14.08 23.7697 13.5992C24.8204 13.2585 25.8163 13.0585 27.0913 12.9319C27.6932 12.8722 29.1625 12.8889 29.8285 12.9629ZM22.1806 19.6422C21.8398 19.7026 21.5087 19.9032 21.1473 20.268C20.3172 21.1059 19.9159 21.9931 19.7815 23.287C19.6622 24.4364 20.1365 26.0014 21.0239 27.3868C21.9178 28.7825 23.0721 30.2367 24.1193 31.2865C25.3867 32.557 26.5752 33.4385 27.9305 34.113C29.1799 34.7349 31.1553 35.44 32.2689 35.6616C33.5841 35.9233 35.1086 35.4845 36.2095 34.5274C36.689 34.1105 36.9251 33.7154 37.0938 33.0474C37.2287 32.513 37.26 32.0671 37.1815 31.7969C37.0843 31.4626 36.9409 31.3535 35.9346 30.8478C34.3235 30.0382 33.4758 29.675 33.1401 29.6506C32.7341 29.621 32.5986 29.7189 31.9903 30.4809C31.4752 31.1262 31.0635 31.5578 30.885 31.6396C30.6986 31.725 30.3945 31.7228 30.1234 31.634C29.7555 31.5134 28.5306 30.8873 28.0846 30.5918C26.7205 29.6881 25.6097 28.5785 24.72 27.2311C24.1561 26.3771 24.1591 26.1107 24.7405 25.4287C25.1127 24.9922 25.3354 24.6836 25.4578 24.4349C25.5588 24.2296 25.5701 24.1755 25.5681 23.9083C25.5655 23.5606 25.5816 23.6063 24.8208 21.7922C24.1 20.0735 24.0015 19.9012 23.6378 19.7226C23.4467 19.6288 23.4125 19.624 22.8955 19.6178C22.5975 19.6143 22.2757 19.6253 22.1806 19.6422ZM10.0984 45.8667C10.0984 45.8859 10.1229 45.9017 10.1529 45.9017C10.1829 45.9017 10.1977 45.8859 10.1858 45.8667C10.1739 45.8475 10.1494 45.8317 10.1313 45.8317C10.1132 45.8317 10.0984 45.8475 10.0984 45.8667Z" fill="white"/>
    </symbol>

    <symbol id="close-button" viewBox="0 0 16 15">
        <path d="M14.9316 1.24702C15.1561 1.03745 15.1561 0.697677 14.9316 0.488109C14.707 0.278541 14.343 0.278541 14.1184 0.488109L7.55 6.61824L0.981587 0.488109C0.757036 0.278541 0.392966 0.278541 0.168414 0.488109C-0.0561374 0.697677 -0.0561374 1.03745 0.168414 1.24702L6.73683 7.37715L0.168414 13.5073C-0.0561379 13.7169 -0.0561379 14.0566 0.168414 14.2662C0.392965 14.4758 0.757035 14.4758 0.981587 14.2662L7.55 8.13607L14.1184 14.2662C14.343 14.4758 14.707 14.4758 14.9316 14.2662C15.1561 14.0566 15.1561 13.7169 14.9316 13.5073L8.36318 7.37715L14.9316 1.24702Z" fill="#FF6500"/>
    </symbol>

    <symbol id="arrow-outline" viewBox="0 0 39 39">
        <path d="M19.7704 14.8161C20.1481 14.4132 20.7809 14.3928 21.1838 14.7705C21.5867 15.1483 21.6072 15.7811 21.2294 16.184L18.1206 19.5001L21.2294 22.8161C21.6072 23.219 21.5867 23.8519 21.1838 24.2296C20.7809 24.6073 20.1481 24.5869 19.7704 24.184L16.0204 20.184C15.6597 19.7993 15.6597 19.2008 16.0204 18.8161L19.7704 14.8161Z" fill="#FF6500"/>
        <path fill-rule="evenodd" clip-rule="evenodd" d="M19.4999 2.00006C9.8349 2.00006 1.99988 9.83507 1.99988 19.5001C1.99988 29.165 9.83489 37.0001 19.4999 37.0001C29.1649 37.0001 36.9999 29.165 36.9999 19.5001C36.9999 9.83508 29.1649 2.00006 19.4999 2.00006ZM19.4999 5.93304e-05C8.73033 5.83889e-05 -0.000119424 8.73051 -0.000120366 19.5001C-0.000121307 30.2696 8.73033 39.0001 19.4999 39.0001C30.2694 39.0001 38.9999 30.2696 38.9999 19.5001C38.9999 8.73051 30.2694 6.02719e-05 19.4999 5.93304e-05Z" fill="#FF6500"/>
    </symbol>

<!-- FEATURES ICONS -->

    <symbol id="gestion" viewBox="0 0 60 50">
        <title>Gestión-de-pedidos</title>
        <path d="M21 48C21 49.1046 21.8954 50 23 50H37C38.1046 50 39 49.1046 39 48V30C39 28.8954 38.1046 28 37 28H31V21C31 20.7348 30.8946 20.4804 30.7071 20.2929C30.5196 20.1054 30.2652 20 30 20C29.7348 20 29.4804 20.1054 29.2929 20.2929C29.1054 20.4804 29 20.7348 29 21V28H23C21.8954 28 21 28.8954 21 30V48ZM23 30H37V48H23V30Z" fill="#FF6500"/>
        <path d="M34 32H26C25.4477 32 25 32.4477 25 33C25 33.5523 25.4477 34 26 34H34C34.5523 34 35 33.5523 35 33C35 32.4477 34.5523 32 34 32Z" fill="#FF6500"/>
        <path d="M25 37C25 37.5523 25.4477 38 26 38C26.5523 38 27 37.5523 27 37C27 36.4477 26.5523 36 26 36C25.4477 36 25 36.4477 25 37Z" fill="#FF6500"/>
        <path d="M34 36H30C29.4477 36 29 36.4477 29 37C29 37.5523 29.4477 38 30 38H34C34.5523 38 35 37.5523 35 37C35 36.4477 34.5523 36 34 36Z" fill="#FF6500"/>
        <path d="M34 40H26C25.4477 40 25 40.4477 25 41C25 41.5523 25.4477 42 26 42H34C34.5523 42 35 41.5523 35 41C35 40.4477 34.5523 40 34 40Z" fill="#FF6500"/>
        <path d="M25 45C25 45.5523 25.4477 46 26 46C26.5523 46 27 45.5523 27 45C27 44.4477 26.5523 44 26 44C25.4477 44 25 44.4477 25 45Z" fill="#FF6500"/>
        <path d="M34 44H30C29.4477 44 29 44.4477 29 45C29 45.5523 29.4477 46 30 46H34C34.5523 46 35 45.5523 35 45C35 44.4477 34.5523 44 34 44Z" fill="#FF6500"/>
        <path d="M18 30C18 28.8954 17.1046 28 16 28H2C0.89543 28 0 28.8954 0 30V48C0 49.1046 0.895431 50 2 50H16C17.1046 50 18 49.1046 18 48V30ZM16 48H2V30H16V48Z" fill="#FF6500"/>
        <path d="M60 30C60 28.8954 59.1046 28 58 28H44C42.8954 28 42 28.8954 42 30V48C42 49.1046 42.8954 50 44 50H58C59.1046 50 60 49.1046 60 48V30ZM58 48H44V30H58V48Z" fill="#FF6500"/>
        <path d="M13 32H5C4.44772 32 4 32.4477 4 33C4 33.5523 4.44772 34 5 34H13C13.5523 34 14 33.5523 14 33C14 32.4477 13.5523 32 13 32Z" fill="#FF6500"/>
        <path d="M55 32H47C46.4477 32 46 32.4477 46 33C46 33.5523 46.4477 34 47 34H55C55.5523 34 56 33.5523 56 33C56 32.4477 55.5523 32 55 32Z" fill="#FF6500"/>
        <path d="M4 37C4 37.5523 4.44772 38 5 38C5.55228 38 6 37.5523 6 37C6 36.4477 5.55228 36 5 36C4.44772 36 4 36.4477 4 37Z" fill="#FF6500"/>
        <path d="M46 37C46 37.5523 46.4477 38 47 38C47.5523 38 48 37.5523 48 37C48 36.4477 47.5523 36 47 36C46.4477 36 46 36.4477 46 37Z" fill="#FF6500"/>
        <path d="M13 36H9C8.44772 36 8 36.4477 8 37C8 37.5523 8.44772 38 9 38H13C13.5523 38 14 37.5523 14 37C14 36.4477 13.5523 36 13 36Z" fill="#FF6500"/>
        <path d="M55 36H51C50.4477 36 50 36.4477 50 37C50 37.5523 50.4477 38 51 38H55C55.5523 38 56 37.5523 56 37C56 36.4477 55.5523 36 55 36Z" fill="#FF6500"/>
        <path d="M13 40H5C4.44772 40 4 40.4477 4 41C4 41.5523 4.44772 42 5 42H13C13.5523 42 14 41.5523 14 41C14 40.4477 13.5523 40 13 40Z" fill="#FF6500"/>
        <path d="M55 40H47C46.4477 40 46 40.4477 46 41C46 41.5523 46.4477 42 47 42H55C55.5523 42 56 41.5523 56 41C56 40.4477 55.5523 40 55 40Z" fill="#FF6500"/>
        <path d="M4 45C4 45.5523 4.44772 46 5 46C5.55228 46 6 45.5523 6 45C6 44.4477 5.55228 44 5 44C4.44772 44 4 44.4477 4 45Z" fill="#FF6500"/>
        <path d="M46 45C46 45.5523 46.4477 46 47 46C47.5523 46 48 45.5523 48 45C48 44.4477 47.5523 44 47 44C46.4477 44 46 44.4477 46 45Z" fill="#FF6500"/>
        <path d="M13 44H9C8.44772 44 8 44.4477 8 45C8 45.5523 8.44772 46 9 46H13C13.5523 46 14 45.5523 14 45C14 44.4477 13.5523 44 13 44Z" fill="#FF6500"/>
        <path d="M55 44H51C50.4477 44 50 44.4477 50 45C50 45.5523 50.4477 46 51 46H55C55.5523 46 56 45.5523 56 45C56 44.4477 55.5523 44 55 44Z" fill="#FF6500"/>
        <path d="M20 16H9C8.73478 16 8.48043 16.1054 8.29289 16.2929C8.10536 16.4804 8 16.7348 8 17V25C8 25.2652 8.10536 25.5196 8.29289 25.7071C8.48043 25.8946 8.73478 26 9 26C9.26522 26 9.51957 25.8946 9.70711 25.7071C9.89464 25.5196 10 25.2652 10 25V18H20C20.2652 18 20.5196 17.8946 20.7071 17.7071C20.8946 17.5196 21 17.2652 21 17C21 16.7348 20.8946 16.4804 20.7071 16.2929C20.5196 16.1054 20.2652 16 20 16Z" fill="#FF6500"/>
        <path d="M51 26C51.2652 26 51.5196 25.8946 51.7071 25.7071C51.8946 25.5196 52 25.2652 52 25V17C52 16.7348 51.8946 16.4804 51.7071 16.2929C51.5196 16.1054 51.2652 16 51 16H40C39.7348 16 39.4804 16.1054 39.2929 16.2929C39.1054 16.4804 39 16.7348 39 17C39 17.2652 39.1054 17.5196 39.2929 17.7071C39.4804 17.8946 39.7348 18 40 18H50V25C50 25.2652 50.1054 25.5196 50.2929 25.7071C50.4804 25.8946 50.7348 26 51 26Z" fill="#FF6500"/>
        <path fill-rule="evenodd" clip-rule="evenodd" d="M30 1C27.5463 1 25.5571 3.02673 25.5571 5.52683C25.5571 8.02693 27.5463 10.0537 30 10.0537C32.4538 10.0537 34.443 8.02693 34.443 5.52683C34.443 3.02673 32.4538 1 30 1ZM26.7717 5.52683C26.7717 3.71021 28.2171 2.23755 30 2.23755C31.783 2.23755 33.2284 3.71021 33.2284 5.52683C33.2284 7.34345 31.783 8.81611 30 8.81611C28.2171 8.81611 26.7717 7.34345 26.7717 5.52683Z" fill="#FF6500"/>
        <path d="M24.2146 17.3812C24.2146 15.3506 24.7854 13.9382 25.7338 13.028C26.6883 12.1117 28.1162 11.6168 29.9999 11.6168C31.8837 11.6168 33.3116 12.1117 34.2662 13.028C35.2146 13.9382 35.7854 15.3506 35.7854 17.3812C35.7854 17.723 36.0573 18 36.3927 18C36.7281 18 37 17.723 37 17.3812C37 15.113 36.3562 13.3338 35.0991 12.1272C33.8482 10.9265 32.0797 10.3793 29.9999 10.3793C27.9202 10.3793 26.1518 10.9265 24.9009 12.1272C23.6438 13.3338 23 15.113 23 17.3812C23 17.723 23.2719 18 23.6073 18C23.9427 18 24.2146 17.723 24.2146 17.3812Z" fill="#FF6500"/>
        <path fill-rule="evenodd" clip-rule="evenodd" d="M30 1.5C27.8312 1.5 26.0571 3.29401 26.0571 5.52683C26.0571 7.75964 27.8312 9.55366 30 9.55366C32.1689 9.55366 33.943 7.75964 33.943 5.52683C33.943 3.29401 32.1689 1.5 30 1.5ZM25.0571 5.52683C25.0571 2.75944 27.2613 0.5 30 0.5C32.7387 0.5 34.943 2.75944 34.943 5.52683C34.943 7.53644 33.7806 9.27819 32.0953 10.0814C33.3923 10.3498 34.5365 10.8942 35.4453 11.7664C36.8279 13.0935 37.5 15.0199 37.5 17.3812C37.5 17.9903 37.013 18.5 36.3927 18.5C35.7724 18.5 35.2854 17.9903 35.2854 17.3812C35.2854 15.4442 34.7431 14.1788 33.92 13.3887C33.087 12.5892 31.8005 12.1168 29.9999 12.1168C28.1994 12.1168 26.9129 12.5892 26.08 13.3887C25.2569 14.1787 24.7146 15.4442 24.7146 17.3812C24.7146 17.9903 24.2276 18.5 23.6073 18.5C22.987 18.5 22.5 17.9903 22.5 17.3812C22.5 15.0199 23.1721 13.0935 24.5546 11.7664C25.4634 10.8942 26.6076 10.3497 27.9047 10.0814C26.2194 9.27816 25.0571 7.53642 25.0571 5.52683ZM26.2717 5.52683C26.2717 3.44292 27.9322 1.73755 30 1.73755C32.0679 1.73755 33.7284 3.44292 33.7284 5.52683C33.7284 7.61073 32.0679 9.31611 30 9.31611C27.9322 9.31611 26.2717 7.61073 26.2717 5.52683ZM30 2.73755C28.502 2.73755 27.2717 3.97749 27.2717 5.52683C27.2717 7.07616 28.502 8.31611 30 8.31611C31.4981 8.31611 32.7284 7.07616 32.7284 5.52683C32.7284 3.97749 31.4981 2.73755 30 2.73755ZM29.9999 10.8793C28.003 10.8793 26.3762 11.4042 25.2471 12.4879C24.1155 13.5741 23.5 15.2061 23.5 17.3812C23.5 17.4557 23.5568 17.5 23.6073 17.5C23.6578 17.5 23.7146 17.4557 23.7146 17.3812C23.7146 15.257 24.314 13.6977 25.3875 12.6672C26.4637 11.6343 28.033 11.1168 29.9999 11.1168C31.9669 11.1168 33.5362 11.6343 34.6124 12.6672C35.686 13.6977 36.2854 15.257 36.2854 17.3812C36.2854 17.4557 36.3422 17.5 36.3927 17.5C36.4432 17.5 36.5 17.4557 36.5 17.3812C36.5 15.2061 35.8845 13.5741 34.7528 12.4879C33.6238 11.4042 31.9969 10.8793 29.9999 10.8793Z" fill="#FF6500"/>
    </symbol>

    <symbol id="menu-digital" viewBox="0 0 51 45">
        <title>Menú Digital</title>
        <path fill-rule="evenodd" clip-rule="evenodd" d="M2 0H34C35.1046 0 36 0.895431 36 2V43C36 44.1046 35.1046 45 34 45H2C0.895431 45 0 44.1046 0 43V2C0 0.895431 0.895432 0 2 0ZM2.44444 42.5455H33.5556V2.45455H2.44444V42.5455Z" fill="#FF6500"/>
        <path d="M27 7H9C7.89543 7 7 7.89543 7 9C7 10.1046 7.89543 11 9 11H27C28.1046 11 29 10.1046 29 9C29 7.89543 28.1046 7 27 7Z" fill="#FF6500"/>
        <path fill-rule="evenodd" clip-rule="evenodd" d="M6.5 9C6.5 7.61929 7.61929 6.5 9 6.5H27C28.3807 6.5 29.5 7.61929 29.5 9C29.5 10.3807 28.3807 11.5 27 11.5H9C7.61929 11.5 6.5 10.3807 6.5 9ZM9 7.5C8.17157 7.5 7.5 8.17157 7.5 9C7.5 9.82843 8.17157 10.5 9 10.5H27C27.8284 10.5 28.5 9.82843 28.5 9C28.5 8.17157 27.8284 7.5 27 7.5H9Z" fill="white"/>
        <path d="M7 18C7 19.1046 7.89543 20 9 20C10.1046 20 11 19.1046 11 18C11 16.8954 10.1046 16 9 16C7.89543 16 7 16.8954 7 18Z" fill="#FF6500"/>
        <path fill-rule="evenodd" clip-rule="evenodd" d="M6.5 18C6.5 16.6193 7.61929 15.5 9 15.5C10.3807 15.5 11.5 16.6193 11.5 18C11.5 19.3807 10.3807 20.5 9 20.5C7.61929 20.5 6.5 19.3807 6.5 18ZM9 16.5C8.17157 16.5 7.5 17.1716 7.5 18C7.5 18.8284 8.17157 19.5 9 19.5C9.82843 19.5 10.5 18.8284 10.5 18C10.5 17.1716 9.82843 16.5 9 16.5Z" fill="white"/>
        <path fill-rule="evenodd" clip-rule="evenodd" d="M13 18C13 17.1716 13.8674 16.5 14.9375 16.5H26.5625C27.6326 16.5 28.5 17.1716 28.5 18C28.5 18.8284 27.6326 19.5 26.5625 19.5H14.9375C13.8674 19.5 13 18.8284 13 18Z" fill="#FF6500"/>
        <path d="M27 25H9C7.89543 25 7 25.8954 7 27C7 28.1046 7.89543 29 9 29H27C28.1046 29 29 28.1046 29 27C29 25.8954 28.1046 25 27 25Z" fill="#FF6500"/>
        <path fill-rule="evenodd" clip-rule="evenodd" d="M6.5 27C6.5 25.6193 7.61929 24.5 9 24.5H27C28.3807 24.5 29.5 25.6193 29.5 27C29.5 28.3807 28.3807 29.5 27 29.5H9C7.61929 29.5 6.5 28.3807 6.5 27ZM9 25.5C8.17157 25.5 7.5 26.1716 7.5 27C7.5 27.8284 8.17157 28.5 9 28.5H27C27.8284 28.5 28.5 27.8284 28.5 27C28.5 26.1716 27.8284 25.5 27 25.5H9Z" fill="white"/>
        <path d="M7 36C7 37.1046 7.89543 38 9 38C10.1046 38 11 37.1046 11 36C11 34.8954 10.1046 34 9 34C7.89543 34 7 34.8954 7 36Z" fill="#FF6500"/>
        <path fill-rule="evenodd" clip-rule="evenodd" d="M6.5 36C6.5 34.6193 7.61929 33.5 9 33.5C10.3807 33.5 11.5 34.6193 11.5 36C11.5 37.3807 10.3807 38.5 9 38.5C7.61929 38.5 6.5 37.3807 6.5 36ZM9 34.5C8.17157 34.5 7.5 35.1716 7.5 36C7.5 36.8284 8.17157 37.5 9 37.5C9.82843 37.5 10.5 36.8284 10.5 36C10.5 35.1716 9.82843 34.5 9 34.5Z" fill="white"/>
        <path fill-rule="evenodd" clip-rule="evenodd" d="M13 36C13 35.1716 13.8674 34.5 14.9375 34.5H26.5625C27.6326 34.5 28.5 35.1716 28.5 36C28.5 36.8284 27.6326 37.5 26.5625 37.5H14.9375C13.8674 37.5 13 36.8284 13 36Z" fill="#FF6500"/>
        <path d="M46.3746 9.69358L49.2799 12.5619C49.6762 12.9531 49.6766 13.5927 49.2807 13.9844L36.3989 26.7301C36.2608 26.8667 36.0861 26.9601 35.8958 26.999L32.4093 27.7118C31.7265 27.8515 31.1138 27.2673 31.2208 26.5786L31.778 22.9928C31.8109 22.781 31.9111 22.5854 32.0636 22.4348L44.9695 9.69358C45.3589 9.30909 45.9851 9.30909 46.3746 9.69358Z" fill="white"/>
        <path d="M49.2808 13.9844C49.6766 13.5927 49.6763 12.9531 49.28 12.5619L46.3746 9.69359C45.9851 9.3091 45.359 9.3091 44.9695 9.69359L32.0637 22.4348C31.9111 22.5854 31.811 22.781 31.7781 22.9928L31.2209 26.5786C31.1139 27.2673 31.7265 27.8515 32.4093 27.7119L35.8959 26.999C36.0861 26.9601 36.2609 26.8667 36.3989 26.7301L49.2808 13.9844ZM44.9695 10.9663C45.359 10.5818 45.9851 10.5818 46.3746 10.9663L47.99 12.5611C48.3866 12.9526 48.3866 13.5928 47.99 13.9844L47.0499 14.9125C46.6604 15.297 46.0342 15.297 45.6448 14.9125L44.0294 13.3177C43.6328 12.9262 43.6328 12.286 44.0294 11.8944L44.9695 10.9663ZM41.9614 13.9386C42.3507 13.5529 42.9779 13.5523 43.3678 13.9373L44.9833 15.5321C45.3793 15.9231 45.3799 16.5623 44.9846 16.9541L38.2405 23.6371C37.8513 24.0229 37.2241 24.0234 36.8341 23.6384L35.2187 22.0436C34.8226 21.6526 34.822 21.0135 35.2173 20.6217L41.9614 13.9386ZM33.5196 26.5526C32.8356 26.6957 32.2195 26.111 32.3267 25.4204L32.6376 23.4172C32.6705 23.2053 32.7706 23.0096 32.9232 22.8589L33.1214 22.6633C33.5108 22.2788 34.137 22.2788 34.5265 22.6633L36.1419 24.2581C36.5384 24.6496 36.5384 25.2898 36.1419 25.6813L35.9365 25.884C35.7997 26.0191 35.6269 26.1118 35.4387 26.1512L33.5196 26.5526Z" fill="#FF6500" stroke="#FF6500"/>
    </symbol>

    <symbol id="pagos" viewBox="0 0 48 47">
        <title>Pagos online</title>
        <path d="M24.4474 1H4.55263C3.61076 1.00112 2.70779 1.37187 2.04179 2.03094C1.37578 2.69 1.00113 3.58357 1 4.51562V42.4844C1.00113 43.4164 1.37578 44.31 2.04179 44.9691C2.70779 45.6281 3.61076 45.9989 4.55263 46H24.4474C25.3892 45.9989 26.2922 45.6281 26.9582 44.9691C27.6242 44.31 27.9989 43.4164 28 42.4844V4.51562C27.9989 3.58357 27.6242 2.69 26.9582 2.03094C26.2922 1.37187 25.3892 1.00112 24.4474 1ZM2.42105 9.4375H26.5789V37.5625H2.42105V9.4375ZM2.42105 4.51562C2.42105 3.95618 2.64563 3.41966 3.04538 3.02407C3.44513 2.62849 3.9873 2.40625 4.55263 2.40625H24.4474C25.0127 2.40625 25.5549 2.62849 25.9546 3.02407C26.3544 3.41966 26.5789 3.95618 26.5789 4.51562V8.03125H2.42105V4.51562ZM26.5789 42.4844C26.5789 43.0438 26.3544 43.5803 25.9546 43.9759C25.5549 44.3715 25.0127 44.5938 24.4474 44.5938H4.55263C3.9873 44.5937 3.44513 44.3715 3.04538 43.9759C2.64563 43.5803 2.42105 43.0438 2.42105 42.4844V38.9688H26.5789V42.4844Z" fill="#FF6500" stroke="#FF6500"/>
        <mask id="path-2-inside-1" fill="white">
        <path d="M9.29005 5.14705C9.10414 5.24129 9 5.36801 9 5.5C9 5.63199 9.10414 5.75871 9.29005 5.85295C9.42991 5.92305 9.60861 5.97087 9.80335 5.99029C9.99809 6.00971 10.2001 5.99986 10.3835 5.962C10.5669 5.92414 10.7235 5.85997 10.8333 5.77769C10.9431 5.69541 11.0011 5.59874 11 5.5C11.0011 5.40126 10.9431 5.30459 10.8333 5.22231C10.7235 5.14003 10.5669 5.07586 10.3835 5.038C10.2001 5.00014 9.99809 4.99029 9.80335 5.00971C9.60861 5.02913 9.42991 5.07695 9.29005 5.14705Z"/>
        </mask>
        <path d="M9.29005 5.14705C9.10414 5.24129 9 5.36801 9 5.5C9 5.63199 9.10414 5.75871 9.29005 5.85295C9.42991 5.92305 9.60861 5.97087 9.80335 5.99029C9.99809 6.00971 10.2001 5.99986 10.3835 5.962C10.5669 5.92414 10.7235 5.85997 10.8333 5.77769C10.9431 5.69541 11.0011 5.59874 11 5.5C11.0011 5.40126 10.9431 5.30459 10.8333 5.22231C10.7235 5.14003 10.5669 5.07586 10.3835 5.038C10.2001 5.00014 9.99809 4.99029 9.80335 5.00971C9.60861 5.02913 9.42991 5.07695 9.29005 5.14705Z" fill="#FF6500"/>
        <path d="M9.29005 5.14705L8.84194 4.25306L8.83792 4.2551L9.29005 5.14705ZM9.29005 5.85295L8.83792 6.74491L8.84194 6.74693L9.29005 5.85295ZM11 5.5L10.0001 5.4883L9.99991 5.5L10.0001 5.5117L11 5.5ZM8.83792 4.2551C8.52794 4.41223 8 4.80131 8 5.5H10C10 5.71135 9.91371 5.86418 9.8479 5.94427C9.81594 5.98317 9.78732 6.00748 9.77005 6.02056C9.76109 6.02735 9.75406 6.03197 9.74951 6.03478C9.74494 6.0376 9.74238 6.0389 9.74217 6.03901L8.83792 4.2551ZM8 5.5C8 6.19869 8.52794 6.58777 8.83792 6.7449L9.74217 4.96099C9.74238 4.9611 9.74494 4.9624 9.74951 4.96522C9.75406 4.96803 9.76109 4.97265 9.77005 4.97944C9.78732 4.99252 9.81594 5.01683 9.8479 5.05573C9.91371 5.13582 10 5.28865 10 5.5H8ZM8.84194 6.74693C9.11451 6.88355 9.4172 6.95674 9.70411 6.98535L9.90259 4.99522C9.85501 4.99048 9.81515 4.98278 9.78459 4.97461C9.76956 4.97058 9.75799 4.96677 9.74978 4.96372C9.74149 4.96065 9.7378 4.95879 9.73815 4.95897L8.84194 6.74693ZM9.70411 6.98535C9.99498 7.01436 10.2987 7.00057 10.5856 6.94135L10.1813 4.98264C10.1014 4.99915 10.0012 5.00506 9.90259 4.99522L9.70411 6.98535ZM10.5856 6.94135C10.8635 6.884 11.1707 6.77449 11.433 6.57792L10.2336 4.97746C10.2472 4.96726 10.2566 4.96188 10.2599 4.96005C10.2633 4.95816 10.2626 4.95883 10.2569 4.96116C10.2448 4.9661 10.2199 4.97469 10.1813 4.98264L10.5856 6.94135ZM11.433 6.57792C11.6914 6.38429 12.0061 6.01929 11.9999 5.4883L10.0001 5.5117C9.99615 5.17819 10.1948 5.00653 10.2336 4.97746L11.433 6.57792ZM11.9999 5.5117C12.0061 4.98071 11.6914 4.61571 11.433 4.42208L10.2336 6.02254C10.1948 5.99347 9.99615 5.82181 10.0001 5.4883L11.9999 5.5117ZM11.433 4.42208C11.1707 4.22551 10.8635 4.116 10.5856 4.05865L10.1813 6.01736C10.2199 6.02531 10.2448 6.0339 10.2569 6.03884C10.2626 6.04117 10.2633 6.04184 10.2599 6.03995C10.2566 6.03812 10.2472 6.03274 10.2336 6.02254L11.433 4.42208ZM10.5856 4.05865C10.2987 3.99943 9.99498 3.98564 9.70411 4.01465L9.90259 6.00478C10.0012 5.99494 10.1014 6.00085 10.1813 6.01736L10.5856 4.05865ZM9.70411 4.01465C9.4172 4.04326 9.11451 4.11645 8.84194 4.25307L9.73815 6.04103C9.7378 6.04121 9.74149 6.03935 9.74978 6.03628C9.75799 6.03323 9.76956 6.02942 9.78459 6.02539C9.81515 6.01722 9.85501 6.00952 9.90259 6.00478L9.70411 4.01465Z" fill="#FF6500" mask="url(#path-2-inside-1)"/>
        <mask id="path-4-inside-2" fill="white">
        <path d="M18.3 5H12.7C12.5143 5 12.3363 5.05268 12.205 5.14645C12.0737 5.24021 12 5.36739 12 5.5C12 5.63261 12.0737 5.75979 12.205 5.85355C12.3363 5.94732 12.5143 6 12.7 6H18.3C18.4857 6 18.6637 5.94732 18.795 5.85355C18.9263 5.75979 19 5.63261 19 5.5C19 5.36739 18.9263 5.24021 18.795 5.14645C18.6637 5.05268 18.4857 5 18.3 5Z"/>
        </mask>
        <path d="M18.3 5H12.7C12.5143 5 12.3363 5.05268 12.205 5.14645C12.0737 5.24021 12 5.36739 12 5.5C12 5.63261 12.0737 5.75979 12.205 5.85355C12.3363 5.94732 12.5143 6 12.7 6H18.3C18.4857 6 18.6637 5.94732 18.795 5.85355C18.9263 5.75979 19 5.63261 19 5.5C19 5.36739 18.9263 5.24021 18.795 5.14645C18.6637 5.05268 18.4857 5 18.3 5Z" fill="#FF6500"/>
        <path d="M18.3 4H12.7V6H18.3V4ZM12.7 4C12.3385 4 11.9494 4.10016 11.6238 4.33271L12.7863 5.96018C12.7514 5.9851 12.7257 5.99406 12.7158 5.99697C12.7053 6.00009 12.7005 6 12.7 6V4ZM11.6238 4.33271C11.294 4.56829 11 4.97282 11 5.5H13C13 5.76196 12.8535 5.91214 12.7863 5.96018L11.6238 4.33271ZM11 5.5C11 6.02718 11.294 6.43171 11.6238 6.66729L12.7863 5.03982C12.8535 5.08786 13 5.23804 13 5.5H11ZM11.6238 6.66729C11.9494 6.89984 12.3385 7 12.7 7V5C12.7005 5 12.7053 4.99991 12.7158 5.00303C12.7257 5.00594 12.7514 5.0149 12.7863 5.03982L11.6238 6.66729ZM12.7 7H18.3V5H12.7V7ZM18.3 7C18.6615 7 19.0506 6.89984 19.3762 6.66729L18.2137 5.03982C18.2486 5.0149 18.2743 5.00594 18.2842 5.00303C18.2947 4.99991 18.2995 5 18.3 5V7ZM19.3762 6.66729C19.706 6.43171 20 6.02718 20 5.5H18C18 5.23804 18.1465 5.08786 18.2137 5.03982L19.3762 6.66729ZM20 5.5C20 4.97282 19.706 4.56829 19.3762 4.33271L18.2137 5.96018C18.1465 5.91214 18 5.76196 18 5.5H20ZM19.3762 4.33271C19.0506 4.10016 18.6615 4 18.3 4V6C18.2995 6 18.2947 6.00009 18.2842 5.99697C18.2743 5.99406 18.2486 5.9851 18.2137 5.96018L19.3762 4.33271Z" fill="#FF6500" mask="url(#path-4-inside-2)"/>
        <mask id="path-6-inside-3" fill="white">
        <path d="M13.75 42H15.25C15.4489 42 15.6397 41.9473 15.7803 41.8536C15.921 41.7598 16 41.6326 16 41.5C16 41.3674 15.921 41.2402 15.7803 41.1464C15.6397 41.0527 15.4489 41 15.25 41H13.75C13.5511 41 13.3603 41.0527 13.2197 41.1464C13.079 41.2402 13 41.3674 13 41.5C13 41.6326 13.079 41.7598 13.2197 41.8536C13.3603 41.9473 13.5511 42 13.75 42Z"/>
        </mask>
        <path d="M13.75 42H15.25C15.4489 42 15.6397 41.9473 15.7803 41.8536C15.921 41.7598 16 41.6326 16 41.5C16 41.3674 15.921 41.2402 15.7803 41.1464C15.6397 41.0527 15.4489 41 15.25 41H13.75C13.5511 41 13.3603 41.0527 13.2197 41.1464C13.079 41.2402 13 41.3674 13 41.5C13 41.6326 13.079 41.7598 13.2197 41.8536C13.3603 41.9473 13.5511 42 13.75 42Z" fill="#FF6500"/>
        <path d="M13.75 43H15.25V41H13.75V43ZM15.25 43C15.6107 43 16.0028 42.9071 16.335 42.6856L15.2256 41.0215C15.2411 41.0112 15.2529 41.0053 15.2599 41.0022C15.2669 40.9991 15.2707 40.9981 15.2708 40.998C15.2711 40.998 15.269 40.9985 15.2649 40.9991C15.2608 40.9996 15.2557 41 15.25 41V43ZM16.335 42.6856C16.6678 42.4637 17 42.0586 17 41.5H15C15 41.2066 15.1741 41.0558 15.2256 41.0215L16.335 42.6856ZM17 41.5C17 40.9414 16.6678 40.5363 16.335 40.3144L15.2256 41.9785C15.1741 41.9442 15 41.7934 15 41.5H17ZM16.335 40.3144C16.0028 40.0929 15.6107 40 15.25 40V42C15.2557 42 15.2608 42.0004 15.2649 42.0009C15.269 42.0015 15.2711 42.002 15.2708 42.002C15.2707 42.0019 15.2669 42.0009 15.2599 41.9978C15.2529 41.9947 15.2411 41.9888 15.2256 41.9785L16.335 40.3144ZM15.25 40H13.75V42H15.25V40ZM13.75 40C13.3893 40 12.9972 40.0929 12.665 40.3144L13.7744 41.9785C13.7589 41.9888 13.7471 41.9947 13.7401 41.9978C13.7331 42.0009 13.7293 42.0019 13.7292 42.002C13.7289 42.002 13.731 42.0015 13.7351 42.0009C13.7392 42.0004 13.7443 42 13.75 42V40ZM12.665 40.3144C12.3322 40.5363 12 40.9414 12 41.5H14C14 41.7934 13.8259 41.9442 13.7744 41.9785L12.665 40.3144ZM12 41.5C12 42.0586 12.3322 42.4637 12.665 42.6856L13.7744 41.0215C13.8259 41.0558 14 41.2066 14 41.5H12ZM12.665 42.6856C12.9972 42.9071 13.3893 43 13.75 43V41C13.7443 41 13.7392 40.9996 13.7351 40.9991C13.731 40.9985 13.7289 40.998 13.7292 40.998C13.7293 40.9981 13.7331 40.9991 13.7401 41.0022C13.7471 41.0053 13.7589 41.0112 13.7744 41.0215L12.665 42.6856Z" fill="#FF6500" mask="url(#path-6-inside-3)"/>
        <mask id="path-8-inside-4" fill="white">
        <path d="M19.5 42H20.5C20.6326 42 20.7598 41.9473 20.8536 41.8536C20.9473 41.7598 21 41.6326 21 41.5C21 41.3674 20.9473 41.2402 20.8536 41.1464C20.7598 41.0527 20.6326 41 20.5 41H19.5C19.3674 41 19.2402 41.0527 19.1464 41.1464C19.0527 41.2402 19 41.3674 19 41.5C19 41.6326 19.0527 41.7598 19.1464 41.8536C19.2402 41.9473 19.3674 42 19.5 42Z"/>
        </mask>
        <path d="M19.5 42H20.5C20.6326 42 20.7598 41.9473 20.8536 41.8536C20.9473 41.7598 21 41.6326 21 41.5C21 41.3674 20.9473 41.2402 20.8536 41.1464C20.7598 41.0527 20.6326 41 20.5 41H19.5C19.3674 41 19.2402 41.0527 19.1464 41.1464C19.0527 41.2402 19 41.3674 19 41.5C19 41.6326 19.0527 41.7598 19.1464 41.8536C19.2402 41.9473 19.3674 42 19.5 42Z" fill="#FF6500"/>
        <path d="M19.5 43H20.5V41H19.5V43ZM20.5 43C20.8978 43 21.2794 42.842 21.5607 42.5607L20.1464 41.1464C20.2402 41.0527 20.3674 41 20.5 41V43ZM21.5607 42.5607C21.842 42.2794 22 41.8978 22 41.5H20C20 41.3674 20.0527 41.2402 20.1464 41.1464L21.5607 42.5607ZM22 41.5C22 41.1022 21.842 40.7206 21.5607 40.4393L20.1464 41.8536C20.0527 41.7598 20 41.6326 20 41.5H22ZM21.5607 40.4393C21.2794 40.158 20.8978 40 20.5 40V42C20.3674 42 20.2402 41.9473 20.1464 41.8536L21.5607 40.4393ZM20.5 40H19.5V42H20.5V40ZM19.5 40C19.1022 40 18.7206 40.158 18.4393 40.4393L19.8536 41.8536C19.7598 41.9473 19.6326 42 19.5 42V40ZM18.4393 40.4393C18.158 40.7206 18 41.1022 18 41.5H20C20 41.6326 19.9473 41.7598 19.8536 41.8536L18.4393 40.4393ZM18 41.5C18 41.8978 18.158 42.2794 18.4393 42.5607L19.8536 41.1464C19.9473 41.2402 20 41.3674 20 41.5H18ZM18.4393 42.5607C18.7206 42.842 19.1022 43 19.5 43V41C19.6326 41 19.7598 41.0527 19.8536 41.1464L18.4393 42.5607Z" fill="#FF6500" mask="url(#path-8-inside-4)"/>
        <mask id="path-10-inside-5" fill="white">
        <path d="M7.75 42H9.25C9.44891 42 9.63968 41.9473 9.78033 41.8536C9.92098 41.7598 10 41.6326 10 41.5C10 41.3674 9.92098 41.2402 9.78033 41.1464C9.63968 41.0527 9.44891 41 9.25 41H7.75C7.55109 41 7.36032 41.0527 7.21967 41.1464C7.07902 41.2402 7 41.3674 7 41.5C7 41.6326 7.07902 41.7598 7.21967 41.8536C7.36032 41.9473 7.55109 42 7.75 42Z"/>
        </mask>
        <path d="M7.75 42H9.25C9.44891 42 9.63968 41.9473 9.78033 41.8536C9.92098 41.7598 10 41.6326 10 41.5C10 41.3674 9.92098 41.2402 9.78033 41.1464C9.63968 41.0527 9.44891 41 9.25 41H7.75C7.55109 41 7.36032 41.0527 7.21967 41.1464C7.07902 41.2402 7 41.3674 7 41.5C7 41.6326 7.07902 41.7598 7.21967 41.8536C7.36032 41.9473 7.55109 42 7.75 42Z" fill="#FF6500"/>
        <path d="M7.75 43H9.25V41H7.75V43ZM9.25 43C9.61072 43 10.0028 42.9071 10.335 42.6856L9.22563 41.0215C9.24106 41.0112 9.25293 41.0053 9.25989 41.0022C9.26691 40.9991 9.27067 40.9981 9.27083 40.998C9.27105 40.998 9.26902 40.9985 9.26491 40.9991C9.26083 40.9996 9.25574 41 9.25 41V43ZM10.335 42.6856C10.6678 42.4637 11 42.0586 11 41.5H9C9 41.2066 9.17415 41.0558 9.22563 41.0215L10.335 42.6856ZM11 41.5C11 40.9414 10.6678 40.5363 10.335 40.3144L9.22563 41.9785C9.17415 41.9442 9 41.7934 9 41.5H11ZM10.335 40.3144C10.0028 40.0929 9.61072 40 9.25 40V42C9.25574 42 9.26083 42.0004 9.26491 42.0009C9.26902 42.0015 9.27105 42.002 9.27083 42.002C9.27067 42.0019 9.26691 42.0009 9.25989 41.9978C9.25293 41.9947 9.24106 41.9888 9.22563 41.9785L10.335 40.3144ZM9.25 40H7.75V42H9.25V40ZM7.75 40C7.38928 40 6.99722 40.0929 6.66497 40.3144L7.77437 41.9785C7.75894 41.9888 7.74707 41.9947 7.74011 41.9978C7.73309 42.0009 7.72933 42.0019 7.72917 42.002C7.72895 42.002 7.73098 42.0015 7.73509 42.0009C7.73917 42.0004 7.74426 42 7.75 42V40ZM6.66497 40.3144C6.33218 40.5363 6 40.9414 6 41.5H8C8 41.7934 7.82585 41.9442 7.77437 41.9785L6.66497 40.3144ZM6 41.5C6 42.0586 6.33218 42.4637 6.66497 42.6856L7.77437 41.0215C7.82585 41.0558 8 41.2066 8 41.5H6ZM6.66497 42.6856C6.99722 42.9071 7.38928 43 7.75 43V41C7.74426 41 7.73917 40.9996 7.73509 40.9991C7.73098 40.9985 7.72895 40.998 7.72917 40.998C7.72933 40.9981 7.73309 40.9991 7.74011 41.0022C7.74707 41.0053 7.75894 41.0112 7.77437 41.0215L6.66497 42.6856Z" fill="#FF6500" mask="url(#path-10-inside-5)"/>
        <path d="M46.5 32.5H13.5V15.5H46.5V32.5Z" fill="white" stroke="#FF6500"/>
        <path d="M19.9066 25.7804C19.036 25.7804 18.3293 25.0737 18.3293 24.2031C18.3293 23.3326 19.036 22.6259 19.9066 22.6259C20.7772 22.6259 21.4838 23.3326 21.4838 24.2031C21.4838 25.0737 20.7772 25.7804 19.9066 25.7804ZM21.3848 24.2031C21.3848 23.3884 20.7213 22.725 19.9066 22.725C19.0919 22.725 18.4284 23.3884 18.4284 24.2031C18.4284 25.0178 19.0919 25.6813 19.9066 25.6813C20.7213 25.6813 21.3848 25.0178 21.3848 24.2031Z" fill="#FF6500" stroke="#FF6500"/>
        <path d="M41.6482 24.2031C41.6482 25.0737 40.9415 25.7804 40.0709 25.7804C39.2034 25.7804 38.4937 25.0731 38.4937 24.2031C38.4937 23.3326 39.2003 22.6259 40.0709 22.6259C40.9415 22.6259 41.6482 23.3326 41.6482 24.2031ZM41.5491 24.2031C41.5491 23.3884 40.8856 22.725 40.0709 22.725C39.2562 22.725 38.5927 23.3884 38.5927 24.2031C38.5927 25.0178 39.2562 25.6813 40.0709 25.6813C40.8856 25.6813 41.5491 25.0178 41.5491 24.2031Z" fill="#FF6500" stroke="#FF6500"/>
        <path d="M29.9392 27.6799V27.4518V27.3005V26.4819V24.6757V24.444V24.2964V23.4741V21.9244V21.1057V20.9545V20.7264V20.2062C29.9392 20.1782 29.9608 20.1566 29.9887 20.1566C30.0167 20.1566 30.0383 20.1782 30.0383 20.2062V20.7264V20.9545V21.1057V21.9244V23.7305V23.9623V24.1099V24.9322V26.4819V27.3005V27.4518V27.6799V28.2001C30.0383 28.228 30.0167 28.2496 29.9887 28.2496C29.9608 28.2496 29.9392 28.228 29.9392 28.2001V27.6799ZM29.1492 26.8892L29.5895 27.2027L29.5739 27.1983C28.9177 27.0148 28.4371 26.4147 28.4371 25.7052C28.4371 25.6773 28.4587 25.6557 28.4867 25.6557C28.5146 25.6557 28.5362 25.6773 28.5362 25.7052C28.5362 26.1994 28.7841 26.6291 29.1492 26.8892ZM29.1492 23.8814L29.5979 24.2009L29.5739 24.1942C28.9177 24.0107 28.4371 23.4106 28.4371 22.7011C28.4371 21.9916 28.9177 21.3914 29.5739 21.2079L29.5895 21.2036L29.1492 21.5171C28.7832 21.7777 28.5362 22.2116 28.5362 22.7011C28.5362 23.1926 28.785 23.622 29.1492 23.8814ZM30.8283 21.5171L30.388 21.2036L30.4036 21.2079C31.0598 21.3914 31.5403 21.9916 31.5403 22.7011C31.5403 22.729 31.5187 22.7506 31.4908 22.7506C31.4629 22.7506 31.4413 22.729 31.4413 22.7011C31.4413 22.2069 31.1934 21.7771 30.8283 21.5171ZM30.8283 24.5249L30.3795 24.2053L30.4036 24.212C31.0598 24.3956 31.5403 24.9957 31.5403 25.7052C31.5403 26.4147 31.0598 27.0148 30.4036 27.1983L30.388 27.2027L30.8283 26.8892C31.1943 26.6285 31.4413 26.1947 31.4413 25.7052C31.4413 25.2136 31.1925 24.7843 30.8283 24.5249Z" fill="#FF6500" stroke="#FF6500"/>
        <path d="M35.6618 24.2031C35.6618 27.3304 33.116 29.8763 29.9887 29.8763C26.8614 29.8763 24.3156 27.3304 24.3156 24.2031C24.3156 21.0758 26.8614 18.53 29.9887 18.53C33.116 18.53 35.6618 21.0758 35.6618 24.2031ZM35.5627 24.2031C35.5627 21.128 33.0638 18.6291 29.9887 18.6291C26.9136 18.6291 24.4146 21.128 24.4146 24.2031C24.4146 27.2782 26.9136 29.7772 29.9887 29.7772C33.0638 29.7772 35.5627 27.2782 35.5627 24.2031Z" fill="#FF6500" stroke="#FF6500"/>
        <path d="M12.8281 16.0625V32.3438C12.8281 32.9651 13.3318 33.4688 13.9531 33.4688H46.0244C46.6457 33.4688 47.1494 32.9651 47.1494 32.3438V16.0625C47.1494 15.4412 46.6457 14.9375 46.0244 14.9375H13.9531C13.3318 14.9375 12.8281 15.4412 12.8281 16.0625ZM45.8003 32.1197H14.1772V16.2866H45.8003V32.1197Z" fill="#FF6500" stroke="#FF6500" stroke-width="0.25"/>
        <path d="M16.884 18.4934H16.384V18.9934V22.133C16.384 22.161 16.3624 22.1826 16.3344 22.1826C16.3065 22.1826 16.2849 22.161 16.2849 22.133V18.3943H20.0237C20.0516 18.3943 20.0732 18.4159 20.0732 18.4438C20.0732 18.4718 20.0516 18.4934 20.0237 18.4934H16.884Z" fill="#FF6500" stroke="#FF6500"/>
        <path d="M16.384 29.4129V29.9129H16.884H20.0237C20.0516 29.9129 20.0732 29.9345 20.0732 29.9624C20.0732 29.9904 20.0516 30.012 20.0237 30.012H16.2849V26.2732C16.2849 26.2453 16.3065 26.2237 16.3344 26.2237C16.3624 26.2237 16.384 26.2453 16.384 26.2732V29.4129Z" fill="#FF6500" stroke="#FF6500"/>
        <path d="M43.0935 29.9129H43.5935V29.4129V26.2732C43.5935 26.2453 43.6151 26.2237 43.6431 26.2237C43.671 26.2237 43.6926 26.2453 43.6926 26.2732V30.012H39.9538C39.9259 30.012 39.9043 29.9904 39.9043 29.9624C39.9043 29.9345 39.9259 29.9129 39.9538 29.9129H43.0935Z" fill="#FF6500" stroke="#FF6500"/>
        <path d="M43.5935 18.9934V18.4934H43.0935H39.9538C39.9259 18.4934 39.9043 18.4718 39.9043 18.4438C39.9043 18.4159 39.9259 18.3943 39.9538 18.3943H43.6926V22.133C43.6926 22.161 43.671 22.1826 43.6431 22.1826C43.6151 22.1826 43.5935 22.161 43.5935 22.133V18.9934Z" fill="#FF6500" stroke="#FF6500"/>
    </symbol>

    <symbol id="menu-visible" viewBox="0 0 28 47">
        <title>Menú Visible</title>
        <path d="M10.3438 5.21584L10.3438 5.21584L10.3438 5.22166C10.344 5.262 10.3322 5.3015 10.3099 5.33513C10.2876 5.36875 10.2558 5.39496 10.2186 5.41044C10.1813 5.42591 10.1403 5.42993 10.1007 5.422C10.0616 5.41415 10.0257 5.39497 9.99744 5.36686C9.95901 5.32715 9.9375 5.27404 9.9375 5.21875C9.9375 5.16346 9.95901 5.11035 9.99744 5.07064C10.0257 5.04253 10.0616 5.02335 10.1007 5.0155C10.1403 5.00757 10.1813 5.01159 10.2186 5.02706C10.2558 5.04253 10.2876 5.06875 10.3099 5.10237C10.3322 5.136 10.344 5.1755 10.3438 5.21584Z" fill="#FF6500" stroke="#FF6500"/>
        <path d="M12.9531 5.01562H18.5781C18.632 5.01562 18.6837 5.03703 18.7218 5.07512C18.7598 5.11321 18.7812 5.16488 18.7812 5.21875C18.7812 5.27262 18.7598 5.32429 18.7218 5.36238C18.6837 5.40047 18.632 5.42188 18.5781 5.42188H12.9531C12.8993 5.42188 12.8476 5.40047 12.8095 5.36238C12.7714 5.32429 12.75 5.27262 12.75 5.21875C12.75 5.16488 12.7714 5.11321 12.8095 5.07512C12.8476 5.03703 12.8993 5.01562 12.9531 5.01562Z" fill="#FF6500" stroke="#FF6500"/>
        <path d="M24.2031 1H4.51562C3.58357 1.00112 2.69 1.37187 2.03094 2.03094C1.37187 2.69 1.00112 3.58357 1 4.51562V42.4844C1.00112 43.4164 1.37187 44.31 2.03094 44.9691C2.69 45.6281 3.58357 45.9989 4.51562 46H24.2031C25.1352 45.9989 26.0287 45.6281 26.6878 44.9691C27.3469 44.31 27.7176 43.4164 27.7188 42.4844V4.51562C27.7176 3.58357 27.3469 2.69 26.6878 2.03094C26.0287 1.37187 25.1352 1.00112 24.2031 1V1ZM2.40625 9.4375H26.3125V37.5625H2.40625V9.4375ZM2.40625 4.51562C2.40625 3.95618 2.62849 3.41966 3.02407 3.02407C3.41966 2.62849 3.95618 2.40625 4.51562 2.40625H24.2031C24.7626 2.40625 25.2991 2.62849 25.6947 3.02407C26.0903 3.41966 26.3125 3.95618 26.3125 4.51562V8.03125H2.40625V4.51562ZM26.3125 42.4844C26.3125 43.0438 26.0903 43.5803 25.6947 43.9759C25.2991 44.3715 24.7626 44.5938 24.2031 44.5938H4.51562C3.95618 44.5937 3.41966 44.3715 3.02407 43.9759C2.62849 43.5803 2.40625 43.0438 2.40625 42.4844V38.9688H26.3125V42.4844Z" fill="#FF6500" stroke="#FF6500" stroke-width="0.5"/>
        <path d="M5.21875 11.75H4.71875V12.25V14.3594C4.71875 14.4132 4.69735 14.4649 4.65926 14.503C4.62116 14.5411 4.5695 14.5625 4.51562 14.5625C4.46175 14.5625 4.41009 14.5411 4.37199 14.503C4.3339 14.4649 4.3125 14.4132 4.3125 14.3594V11.5469C4.3125 11.493 4.3339 11.4413 4.37199 11.4032C4.41009 11.3652 4.46175 11.3438 4.51562 11.3438H7.32812C7.382 11.3438 7.43366 11.3652 7.47176 11.4032C7.50985 11.4413 7.53125 11.493 7.53125 11.5469C7.53125 11.6007 7.50985 11.6524 7.47176 11.6905C7.43366 11.7286 7.382 11.75 7.32812 11.75H5.21875Z" fill="#FF6500" stroke="#FF6500"/>
        <path d="M15.0625 41.9844H13.6562C13.6024 41.9844 13.5507 41.963 13.5126 41.9249C13.4745 41.8868 13.4531 41.8351 13.4531 41.7812C13.4531 41.7274 13.4745 41.6757 13.5126 41.6376C13.5507 41.5995 13.6024 41.5781 13.6562 41.5781H15.0625C15.1164 41.5781 15.168 41.5995 15.2061 41.6376C15.2442 41.6757 15.2656 41.7274 15.2656 41.7812C15.2656 41.8351 15.2442 41.8868 15.2061 41.9249C15.168 41.963 15.1164 41.9844 15.0625 41.9844Z" fill="#FF6500" stroke="#FF6500"/>
        <path d="M20.6875 41.9844H19.2812C19.2274 41.9844 19.1757 41.963 19.1376 41.9249C19.0995 41.8868 19.0781 41.8351 19.0781 41.7812C19.0781 41.7274 19.0995 41.6757 19.1376 41.6376C19.1757 41.5995 19.2274 41.5781 19.2812 41.5781H20.6875C20.7414 41.5781 20.793 41.5995 20.8311 41.6376C20.8692 41.6757 20.8906 41.7274 20.8906 41.7812C20.8906 41.8351 20.8692 41.8868 20.8311 41.9249C20.793 41.963 20.7414 41.9844 20.6875 41.9844Z" fill="#FF6500" stroke="#FF6500"/>
        <path d="M9.4375 41.9844H8.03125C7.97738 41.9844 7.92571 41.963 7.88762 41.9249C7.84953 41.8868 7.82812 41.8351 7.82812 41.7812C7.82812 41.7274 7.84953 41.6757 7.88762 41.6376C7.92571 41.5995 7.97738 41.5781 8.03125 41.5781H9.4375C9.49137 41.5781 9.54304 41.5995 9.58113 41.6376C9.61922 41.6757 9.64062 41.7274 9.64062 41.7812C9.64062 41.8351 9.61922 41.8868 9.58113 41.9249C9.54304 41.963 9.49137 41.9844 9.4375 41.9844Z" fill="#FF6500" stroke="#FF6500"/>
        <path d="M10.2848 11.6935C10.2441 11.7294 10.1917 11.7495 10.1373 11.75C10.0971 11.7502 10.0577 11.7384 10.0242 11.7161C9.99057 11.6938 9.96435 11.662 9.94888 11.6248C9.93341 11.5875 9.92938 11.5465 9.93732 11.5069C9.9447 11.4701 9.96214 11.4361 9.98762 11.4087C10.0295 11.3727 10.0831 11.3531 10.1384 11.3534C10.194 11.3538 10.2475 11.3744 10.2889 11.4112C10.3225 11.448 10.3419 11.4955 10.3436 11.5453C10.3415 11.6 10.3207 11.6523 10.2848 11.6935Z" fill="#FF6500" stroke="#FF6500"/>
        <path d="M23.5 35.25H24V34.75V34.0469C24 33.993 24.0214 33.9413 24.0595 33.9032C24.0976 33.8652 24.1493 33.8438 24.2031 33.8438C24.257 33.8438 24.3087 33.8652 24.3468 33.9032C24.3848 33.9413 24.4062 33.993 24.4062 34.0469V35.4531C24.4062 35.507 24.3848 35.5587 24.3468 35.5968C24.3087 35.6348 24.257 35.6562 24.2031 35.6562H22.7969C22.743 35.6562 22.6913 35.6348 22.6532 35.5968C22.6152 35.5587 22.5938 35.507 22.5938 35.4531C22.5938 35.3993 22.6152 35.3476 22.6532 35.3095C22.6913 35.2714 22.743 35.25 22.7969 35.25H23.5Z" fill="#FF6500" stroke="#FF6500"/>
        <path d="M6.625 19.0781H7.125V18.5781V15.0625C7.125 15.0086 7.1464 14.957 7.18449 14.9189C7.22259 14.8808 7.27425 14.8594 7.32812 14.8594H21.3906C21.4445 14.8594 21.4962 14.8808 21.5343 14.9189C21.5723 14.957 21.5938 15.0086 21.5938 15.0625V31.9375C21.5938 31.9914 21.5723 32.043 21.5343 32.0811C21.4962 32.1192 21.4445 32.1406 21.3906 32.1406H7.32812C7.27425 32.1406 7.22259 32.1192 7.18449 32.0811C7.1464 32.043 7.125 31.9914 7.125 31.9375V28.4219V27.9219H6.625C6.57113 27.9219 6.51946 27.9005 6.48137 27.8624C6.44328 27.8243 6.42188 27.7726 6.42188 27.7188C6.42188 27.6649 6.44328 27.6132 6.48137 27.5751C6.51946 27.537 6.57113 27.5156 6.625 27.5156H7.125V27.0156V25.6094V25.1094H6.625C6.57113 25.1094 6.51946 25.088 6.48137 25.0499C6.44328 25.0118 6.42188 24.9601 6.42188 24.9062C6.42188 24.8524 6.44328 24.8007 6.48137 24.7626C6.51946 24.7245 6.57113 24.7031 6.625 24.7031H7.125V24.2031V22.7969V22.2969H6.625C6.57113 22.2969 6.51946 22.2755 6.48137 22.2374C6.44328 22.1993 6.42188 22.1476 6.42188 22.0938C6.42188 22.0399 6.44328 21.9882 6.48137 21.9501C6.51946 21.912 6.57113 21.8906 6.625 21.8906H7.125V21.3906V19.9844V19.4844H6.625C6.57113 19.4844 6.51946 19.463 6.48137 19.4249C6.44328 19.3868 6.42188 19.3351 6.42188 19.2812C6.42188 19.2274 6.44328 19.1757 6.48137 19.1376C6.51946 19.0995 6.57113 19.0781 6.625 19.0781ZM20.6875 31.7344H21.1875V31.2344V15.7656V15.2656H20.6875H8.03125H7.53125V15.7656V18.5781V19.0781H8.03125C8.08512 19.0781 8.13679 19.0995 8.17488 19.1376C8.21297 19.1757 8.23438 19.2274 8.23438 19.2812C8.23438 19.3351 8.21297 19.3868 8.17488 19.4249C8.13679 19.463 8.08512 19.4844 8.03125 19.4844H7.53125V19.9844V21.3906V21.8906H8.03125C8.08512 21.8906 8.13679 21.912 8.17488 21.9501C8.21297 21.9882 8.23438 22.0399 8.23438 22.0938C8.23438 22.1476 8.21297 22.1993 8.17488 22.2374C8.13679 22.2755 8.08512 22.2969 8.03125 22.2969H7.53125V22.7969V24.2031V24.7031H8.03125C8.08512 24.7031 8.13679 24.7245 8.17488 24.7626C8.21297 24.8007 8.23438 24.8524 8.23438 24.9062C8.23438 24.9601 8.21297 25.0118 8.17488 25.0499C8.13679 25.088 8.08512 25.1094 8.03125 25.1094H7.53125V25.6094V27.0156V27.5156H8.03125C8.08512 27.5156 8.13679 27.537 8.17488 27.5751C8.21297 27.6132 8.23438 27.6649 8.23438 27.7188C8.23438 27.7726 8.21297 27.8243 8.17488 27.8624C8.13679 27.9005 8.08512 27.9219 8.03125 27.9219H7.53125V28.4219V31.2344V31.7344H8.03125H20.6875Z" fill="#FF6500" stroke="#FF6500"/>
        <path d="M16.6719 23.5V24H17.1719C17.2257 24 17.2774 24.0214 17.3155 24.0595C17.3536 24.0976 17.375 24.1493 17.375 24.2031V25.6094C17.375 26.0362 17.2054 26.4456 16.9036 26.7474C16.6018 27.0492 16.1925 27.2188 15.7656 27.2188H12.9531C12.5263 27.2188 12.1169 27.0492 11.8151 26.7474C11.5133 26.4456 11.3438 26.0362 11.3438 25.6094V24.2031C11.3438 24.1493 11.3652 24.0976 11.4032 24.0595C11.4413 24.0214 11.493 24 11.5469 24H12.0469V23.5V22.7969V22.2969H11.5469C11.493 22.2969 11.4413 22.2755 11.4032 22.2374C11.3652 22.1993 11.3438 22.1476 11.3438 22.0938V20.6875C11.3438 20.2607 11.5133 19.8513 11.8151 19.5495C12.1169 19.2477 12.5263 19.0781 12.9531 19.0781H15.7656C16.1925 19.0781 16.6018 19.2477 16.9036 19.5495C17.2054 19.8513 17.375 20.2607 17.375 20.6875V22.0938C17.375 22.1476 17.3536 22.1993 17.3155 22.2374C17.2774 22.2755 17.2257 22.2969 17.1719 22.2969H16.6719V22.7969V23.5ZM12.25 24.4062H11.75V24.9062V25.6094C11.75 25.9285 11.8768 26.2345 12.1024 26.4601C12.328 26.6857 12.634 26.8125 12.9531 26.8125H15.7656C16.0847 26.8125 16.3907 26.6857 16.6164 26.4601C16.842 26.2345 16.9688 25.9285 16.9688 25.6094V24.9062V24.4062H16.4688H12.25ZM16.4688 21.8906H16.9688V21.3906V20.6875C16.9688 20.3684 16.842 20.0624 16.6164 19.8368C16.3907 19.6111 16.0847 19.4844 15.7656 19.4844H12.9531C12.634 19.4844 12.328 19.6111 12.1024 19.8368C11.8768 20.0624 11.75 20.3684 11.75 20.6875V21.3906V21.8906H12.25H16.4688ZM12.9531 22.2969H12.4531V22.7969V23.5V24H12.9531H15.7656H16.2656V23.5V22.7969V22.2969H15.7656H12.9531Z" fill="#FF6500" stroke="#FF6500"/>
        <path d="M19.4001 17.3294C19.3669 17.3572 19.3254 17.3731 19.2823 17.3749C19.2264 17.3725 19.173 17.3507 19.1315 17.3133C19.1019 17.2818 19.0835 17.2414 19.0792 17.1984C19.0747 17.1533 19.086 17.1081 19.111 17.0704C19.1361 17.0327 19.1734 17.0048 19.2167 16.9915C19.26 16.9782 19.3066 16.9803 19.3485 16.9974C19.3904 17.0145 19.4251 17.0456 19.4467 17.0854C19.4683 17.1252 19.4754 17.1713 19.4669 17.2158C19.4584 17.2602 19.4348 17.3004 19.4001 17.3294Z" fill="#FF6500" stroke="#FF6500"/>
        <path d="M19.4001 29.9857C19.3668 30.0134 19.3254 30.0294 19.2823 30.0311C19.2264 30.0288 19.173 30.007 19.1315 29.9695C19.1019 29.9381 19.0835 29.8977 19.0792 29.8546C19.0747 29.8096 19.086 29.7643 19.111 29.7266C19.1361 29.6889 19.1734 29.6611 19.2167 29.6478C19.26 29.6344 19.3066 29.6365 19.3485 29.6537C19.3904 29.6708 19.4251 29.7019 19.4467 29.7417C19.4683 29.7815 19.4754 29.8275 19.4669 29.872C19.4584 29.9165 19.4348 29.9567 19.4001 29.9857Z" fill="#FF6500" stroke="#FF6500"/>
    </symbol>

    <symbol id="soporte" viewBox="0 0 47 47">
        <path d="M40.0762 18.8124V17.5709C40.0762 8.43506 32.6404 1 23.5036 1C14.3623 1 6.9265 8.43506 6.9265 17.5709V18.8124C4.5289 19.0099 1 20.146 1 23.4964V29.4246C1 33.1596 5.38165 34.1437 7.6978 34.1437C8.1217 34.1437 8.4646 33.8008 8.4646 33.3747V23.4964C8.4646 23.0725 8.1217 22.7297 7.6978 22.7297C7.2694 22.7297 6.9265 23.0725 6.9265 23.4964V32.5621C5.49145 32.4127 2.54035 31.8197 2.54035 29.4246V23.4964C2.54035 20.3656 7.6447 20.3152 7.69735 20.3152C8.12125 20.3152 8.46415 19.9724 8.46415 19.5485V17.5709C8.46415 9.28322 15.2101 2.53345 23.5031 2.53345C31.7917 2.53345 38.5372 9.28322 38.5372 17.5709V19.5485C38.5372 19.9724 38.8801 20.3152 39.3112 20.3152C39.3553 20.3152 44.466 20.3526 44.466 23.4964V29.4246C44.466 31.8062 41.5171 32.4037 40.0757 32.5576V23.4964C40.0757 23.0725 39.7328 22.7297 39.3112 22.7297C38.8801 22.7297 38.5372 23.0725 38.5372 23.4964V33.3747C38.5372 36.0249 37.7065 42.08 30.196 42.4665V41.2759C30.196 40.1776 29.4665 38.5339 27.4514 38.5339H19.5503C17.1023 38.5339 15.8171 40.4102 15.8171 42.2645C15.8171 44.1192 17.1023 46 19.5503 46H27.4519C27.8758 46 28.2209 45.6531 28.2209 45.231C28.2209 44.809 27.8758 44.4576 27.4519 44.4576H19.5503C18.0338 44.4576 17.3553 43.3588 17.3553 42.2645C17.3553 41.1747 18.0343 40.0718 19.5503 40.0718H27.4519C28.5197 40.0718 28.6516 40.92 28.6606 41.2759V43.253C28.6606 43.6791 29.0057 44.0224 29.4296 44.0224C33.238 44.0224 36.0986 42.8094 37.94 40.4188C39.4961 38.4021 39.9664 35.9894 40.0586 34.1086C42.458 33.9151 46 32.7862 46 29.4246V23.4964C46 20.146 42.4711 19.0099 40.0762 18.8124Z" fill="#FF6500" stroke="#FF6500" stroke-width="0.5"/>
        <path d="M17.2104 25.735C17.3604 25.735 17.4771 25.7766 17.5604 25.86C17.6471 25.9433 17.6904 26.0533 17.6904 26.19V27H12.6604V26.55C12.6604 26.4633 12.6787 26.37 12.7154 26.27C12.7521 26.1666 12.8137 26.0733 12.9004 25.99L15.0504 23.835C15.2337 23.6516 15.3954 23.4766 15.5354 23.31C15.6754 23.14 15.7921 22.975 15.8854 22.815C15.9787 22.6516 16.0487 22.4866 16.0954 22.32C16.1421 22.1533 16.1654 21.9783 16.1654 21.795C16.1654 21.4716 16.0821 21.2266 15.9154 21.06C15.7487 20.89 15.5137 20.805 15.2104 20.805C15.0771 20.805 14.9537 20.825 14.8404 20.865C14.7304 20.9016 14.6304 20.9533 14.5404 21.02C14.4537 21.0866 14.3787 21.165 14.3154 21.255C14.2521 21.345 14.2054 21.4433 14.1754 21.55C14.1154 21.7166 14.0337 21.8283 13.9304 21.885C13.8304 21.9383 13.6871 21.95 13.5004 21.92L12.7704 21.79C12.8237 21.4366 12.9237 21.1266 13.0704 20.86C13.2171 20.5933 13.4004 20.3716 13.6204 20.195C13.8404 20.0183 14.0921 19.8866 14.3754 19.8C14.6587 19.71 14.9637 19.665 15.2904 19.665C15.6337 19.665 15.9454 19.7166 16.2254 19.82C16.5087 19.92 16.7504 20.0616 16.9504 20.245C17.1504 20.425 17.3054 20.6433 17.4154 20.9C17.5254 21.1566 17.5804 21.44 17.5804 21.75C17.5804 22.0166 17.5421 22.2633 17.4654 22.49C17.3887 22.7166 17.2837 22.9333 17.1504 23.14C17.0204 23.3433 16.8687 23.5416 16.6954 23.735C16.5221 23.9283 16.3387 24.1233 16.1454 24.32L14.6054 25.895C14.7754 25.845 14.9437 25.8066 15.1104 25.78C15.2771 25.75 15.4337 25.735 15.5804 25.735H17.2104Z" fill="#FF6500"/>
        <path d="M22.3862 24.23V22.07C22.3862 21.9566 22.3895 21.8366 22.3962 21.71C22.4062 21.58 22.4195 21.445 22.4362 21.305L20.3362 24.23H22.3862ZM24.4262 24.23V25.01C24.4262 25.0833 24.4012 25.1466 24.3512 25.2C24.3045 25.25 24.2378 25.275 24.1512 25.275H23.5862V27H22.3862V25.275H19.3912C19.3045 25.275 19.2245 25.2483 19.1512 25.195C19.0812 25.1416 19.0378 25.0716 19.0212 24.985L18.8762 24.295L22.2762 19.74H23.5862V24.23H24.4262Z" fill="#FF6500"/>
        <path d="M27.002 26.98C26.9386 27.1467 26.837 27.2717 26.697 27.355C26.5603 27.4416 26.4203 27.485 26.277 27.485H25.692L28.577 20.02C28.6336 19.87 28.7236 19.7533 28.847 19.67C28.9703 19.5866 29.112 19.545 29.272 19.545H29.862L27.002 26.98Z" fill="#FF6500"/>
        <path d="M36.3688 19.745V20.335C36.3688 20.5083 36.3488 20.6483 36.3088 20.755C36.2721 20.8616 36.2354 20.9516 36.1988 21.025L33.5588 26.54C33.4921 26.6666 33.4021 26.775 33.2888 26.865C33.1754 26.955 33.0221 27 32.8288 27H31.8288L34.5338 21.615C34.6004 21.4883 34.6688 21.3733 34.7388 21.27C34.8088 21.1666 34.8871 21.0683 34.9738 20.975H31.6288C31.5488 20.975 31.4754 20.9433 31.4088 20.88C31.3454 20.8166 31.3138 20.745 31.3138 20.665V19.745H36.3688Z" fill="#FF6500"/>
    </symbol>

    <symbol id="incremento" viewBox="0 0 45 45">
        <path d="M8.80435 29.3478H0.978261C0.438261 29.3478 0 29.7851 0 30.3261V44.0217C0 44.5627 0.438261 45 0.978261 45H8.80435C9.34435 45 9.78261 44.5627 9.78261 44.0217V30.3261C9.78261 29.7851 9.34435 29.3478 8.80435 29.3478ZM7.82609 43.0435H1.95652V31.3043H7.82609V43.0435Z" fill="#FF6500"/>
        <path d="M20.5435 25.4348H12.7174C12.1774 25.4348 11.7391 25.8721 11.7391 26.413V44.0217C11.7391 44.5627 12.1774 45 12.7174 45H20.5435C21.0835 45 21.5217 44.5627 21.5217 44.0217V26.413C21.5217 25.8721 21.0835 25.4348 20.5435 25.4348ZM19.5652 43.0435H13.6957V27.3913H19.5652V43.0435Z" fill="#FF6500"/>
        <path d="M32.2826 19.5652H24.4565C23.9156 19.5652 23.4783 20.0035 23.4783 20.5435V44.0217C23.4783 44.5627 23.9156 45 24.4565 45H32.2826C32.8236 45 33.2609 44.5627 33.2609 44.0217V20.5435C33.2609 20.0035 32.8236 19.5652 32.2826 19.5652ZM31.3044 43.0435H25.4348V21.5217H31.3044V43.0435Z" fill="#FF6500"/>
        <path d="M44.0218 11.7391H36.1957C35.6547 11.7391 35.2174 12.1774 35.2174 12.7174V44.0217C35.2174 44.5627 35.6547 45 36.1957 45H44.0218C44.5627 45 45 44.5627 45 44.0217V12.7174C45 12.1774 44.5627 11.7391 44.0218 11.7391ZM43.0435 43.0435H37.1739V13.6956H43.0435V43.0435Z" fill="#FF6500"/>
        <path d="M37.8871 7.82609C38.428 7.82609 38.8653 7.38783 38.8653 6.84783V0.978261C38.8653 0.957717 38.8546 0.942065 38.8536 0.9225C38.8497 0.854022 38.8321 0.790435 38.8135 0.724892C38.7968 0.665218 38.7851 0.6075 38.7587 0.553696C38.7333 0.50087 38.6961 0.45587 38.6599 0.408913C38.6188 0.352174 38.5787 0.29837 38.5268 0.252392C38.5112 0.238696 38.5053 0.221087 38.4897 0.209348C38.4574 0.183913 38.4173 0.176087 38.383 0.155544C38.3234 0.120326 38.2676 0.0870652 38.2011 0.0645652C38.1365 0.0430435 38.0729 0.0332609 38.0064 0.0254348C37.9663 0.0195652 37.9291 0 37.8871 0H32.2826C31.7416 0 31.3043 0.438261 31.3043 0.978261C31.3043 1.51826 31.7416 1.95652 32.2826 1.95652H35.7955C29.7626 8.82098 16.4123 19.5652 0.978261 19.5652C0.438261 19.5652 0 20.0035 0 20.5435C0 21.0835 0.438261 21.5217 0.978261 21.5217C16.7918 21.5217 30.466 10.7922 36.9088 3.64989V6.84783C36.9088 7.38783 37.3461 7.82609 37.8871 7.82609Z" fill="#FF6500"/>
    </symbol>

    <symbol id="fidelizacion" viewBox="0 0 54 45">
        <path d="M4.5025 31.7589V41.0563C4.50396 42.1018 4.91992 43.104 5.6592 43.8433C6.39847 44.5826 7.40071 44.9985 8.4462 45H45.4376C46.4831 44.9985 47.4854 44.5826 48.2246 43.8433C48.9639 43.104 49.3799 42.1018 49.3813 41.0563V30.9327C49.3813 30.7136 49.2943 30.5034 49.1393 30.3485C48.9844 30.1935 48.7743 30.1065 48.5551 30.1065H42.2926C42.0735 30.1065 41.8633 30.1935 41.7084 30.3485C41.5534 30.5034 41.4664 30.7136 41.4664 30.9327V37.1126H12.3954V31.7589H15.243C15.5441 31.76 15.8397 31.6789 16.0981 31.5242C16.3564 31.3696 16.5675 31.1473 16.7087 30.8813C16.8499 30.6154 16.9157 30.316 16.8991 30.0154C16.8825 29.7148 16.7841 29.4244 16.6145 29.1756L9.79565 19.0851C9.6447 18.8598 9.44064 18.6751 9.20146 18.5474C8.96228 18.4196 8.69533 18.3527 8.42417 18.3525V18.3525C8.15208 18.3518 7.88402 18.4183 7.6438 18.5461C7.40359 18.6739 7.19865 18.859 7.04718 19.0851L0.28341 29.1812C0.115038 29.4302 0.0178182 29.7206 0.00222438 30.0208C-0.0133694 30.3211 0.0532536 30.6199 0.194916 30.8851C0.336579 31.1503 0.547913 31.3718 0.806151 31.5258C1.06439 31.6797 1.35974 31.7603 1.6604 31.7589H4.5025ZM8.45171 20.0104L15.243 30.1065H11.5692C11.3501 30.1065 11.1399 30.1935 10.985 30.3485C10.8301 30.5034 10.743 30.7136 10.743 30.9327V37.9223C10.743 38.1414 10.8301 38.3515 10.985 38.5065C11.1399 38.6614 11.3501 38.7485 11.5692 38.7485H42.2926C42.5117 38.7485 42.7219 38.6614 42.8768 38.5065C43.0317 38.3515 43.1188 38.1414 43.1188 37.9223V31.7589H47.7069V41.0563C47.7055 41.6636 47.4636 42.2455 47.0342 42.6749C46.6048 43.1043 46.0228 43.3462 45.4156 43.3476H8.4462C7.83895 43.3462 7.257 43.1043 6.82761 42.6749C6.39822 42.2455 6.15635 41.6636 6.15489 41.0563V30.9327C6.15489 30.7136 6.06785 30.5034 5.9129 30.3485C5.75796 30.1935 5.54782 30.1065 5.3287 30.1065H1.64938L8.45171 20.0104ZM52.0857 13.2411H49.2381V3.9437C49.2367 2.89821 48.8207 1.89596 48.0814 1.15669C47.3422 0.417421 46.3399 0.00145713 45.2944 0H8.30299C7.25751 0.00145713 6.25526 0.417421 5.51599 1.15669C4.77672 1.89596 4.36075 2.89821 4.3593 3.9437V14.0673C4.3593 14.2864 4.44634 14.4966 4.60128 14.6515C4.75623 14.8065 4.96637 14.8935 5.18549 14.8935H11.448C11.6672 14.8935 11.8773 14.8065 12.0322 14.6515C12.1872 14.4966 12.2742 14.2864 12.2742 14.0673V7.88739H41.3452V13.2411H38.4976C38.1965 13.24 37.9009 13.3211 37.6426 13.4758C37.3843 13.6304 37.1731 13.8527 37.0319 14.1187C36.8907 14.3846 36.8249 14.684 36.8415 14.9846C36.8581 15.2852 36.9565 15.5756 37.1261 15.8244L43.945 25.9149C44.0959 26.1402 44.3 26.3249 44.5392 26.4526C44.7784 26.5804 45.0453 26.6473 45.3165 26.6475V26.6475C45.5886 26.6482 45.8566 26.5817 46.0968 26.4539C46.337 26.3261 46.542 26.141 46.6934 25.9149L53.4572 15.8188C53.6256 15.5698 53.7228 15.2795 53.7384 14.9792C53.754 14.6789 53.6874 14.3801 53.5457 14.1149C53.404 13.8497 53.1927 13.6282 52.9345 13.4742C52.6762 13.3203 52.3809 13.2397 52.0802 13.2411H52.0857ZM45.2889 24.9896L38.4976 14.8935H42.1714C42.3905 14.8935 42.6007 14.8065 42.7556 14.6515C42.9106 14.4966 42.9976 14.2864 42.9976 14.0673V7.07772C42.9976 6.8586 42.9106 6.64846 42.7556 6.49352C42.6007 6.33858 42.3905 6.25153 42.1714 6.25153H11.448C11.2289 6.25153 11.0188 6.33858 10.8638 6.49352C10.7089 6.64846 10.6218 6.8586 10.6218 7.07772V13.2411H6.00618V3.9437C6.00763 3.33645 6.2495 2.75449 6.67889 2.3251C7.10828 1.89571 7.69024 1.65384 8.29749 1.65239H45.2944C45.9017 1.65384 46.4836 1.89571 46.913 2.3251C47.3424 2.75449 47.5843 3.33645 47.5857 3.9437V14.0673C47.5857 14.2864 47.6728 14.4966 47.8277 14.6515C47.9827 14.8065 48.1928 14.8935 48.4119 14.8935H52.0912L45.2889 24.9896ZM26.8703 32.6732C27.2973 32.6685 27.7059 32.4988 28.0105 32.1995L35.0606 25.1603C36.174 24.0623 36.8151 22.5732 36.8474 21.0098C36.8797 19.4464 36.3008 17.9321 35.2337 16.789C34.1667 15.6459 32.6958 14.9642 31.1338 14.889C29.5719 14.8138 28.0423 15.3509 26.8703 16.3862C25.6947 15.3841 24.1781 14.8738 22.6358 14.9613C21.0936 15.0488 19.6444 15.7273 18.5897 16.8559C17.5349 17.9844 16.9557 19.4761 16.9725 21.0207C16.9893 22.5653 17.6009 24.044 18.68 25.1493L25.7302 32.1995C26.0347 32.4988 26.4433 32.6685 26.8703 32.6732V32.6732ZM18.5698 20.9027C18.5701 20.0419 18.8256 19.2006 19.3041 18.4851C19.7826 17.7696 20.4625 17.2121 21.2579 16.8831C22.0533 16.5541 22.9284 16.4684 23.7725 16.6368C24.6166 16.8052 25.3918 17.2202 26.0001 17.8293L26.292 18.1212C26.4469 18.2759 26.6569 18.3628 26.8758 18.3628C27.0948 18.3628 27.3048 18.2759 27.4597 18.1212L27.7406 17.8403C28.1415 17.4228 28.6217 17.0895 29.153 16.8599C29.6844 16.6303 30.2562 16.509 30.835 16.5031C31.4138 16.4973 31.9879 16.607 32.5238 16.8258C33.0597 17.0446 33.5465 17.3681 33.9558 17.7774C34.3651 18.1867 34.6887 18.6735 34.9075 19.2094C35.1263 19.7453 35.2359 20.3194 35.2301 20.8982C35.2242 21.477 35.1029 22.0488 34.8733 22.5802C34.6438 23.1115 34.3104 23.5917 33.893 23.9927L26.9034 31.0318L19.8477 23.9761C19.4424 23.5735 19.1209 23.0946 18.9016 22.5671C18.6823 22.0396 18.5695 21.474 18.5698 20.9027V20.9027Z" fill="#FF6500"/>
    </symbol>

    <symbol id="tiempos" viewBox="0 0 45 47">
        <path d="M14.0847 16.1875H9.02222C8.87303 16.1875 8.72996 16.2468 8.62447 16.3523C8.51898 16.4578 8.45972 16.6008 8.45972 16.75V21.8125C8.45972 21.9617 8.51898 22.1048 8.62447 22.2103C8.72996 22.3157 8.87303 22.375 9.02222 22.375H14.0847C14.2339 22.375 14.377 22.3157 14.4825 22.2103C14.588 22.1048 14.6472 21.9617 14.6472 21.8125V16.75C14.6472 16.6008 14.588 16.4578 14.4825 16.3523C14.377 16.2468 14.2339 16.1875 14.0847 16.1875ZM12.6278 17.3125C12.5214 17.3075 12.4156 17.3329 12.323 17.3857C12.2304 17.4385 12.1547 17.5165 12.1047 17.6106L11.0472 19.6525L10.5241 18.9494C10.4688 18.8742 10.3957 18.814 10.3113 18.7741C10.2269 18.7343 10.1339 18.716 10.0407 18.721C9.94755 18.7261 9.85708 18.7542 9.77747 18.8029C9.69786 18.8516 9.63162 18.9193 9.58472 19V17.3125H12.6278ZM9.58472 19.5625C9.59409 19.5877 9.60537 19.6122 9.61847 19.6356L10.7097 21.0419C10.7583 21.1046 10.8197 21.1564 10.8897 21.1938L10.991 21.2331H9.58472V19.5625ZM13.5222 21.25H11.2722H11.3228L11.4241 21.1994C11.4656 21.1636 11.5016 21.1219 11.531 21.0756V21.0419L13.0047 18.2294C13.0687 18.1527 13.1112 18.0604 13.1277 17.9619C13.1442 17.8634 13.1342 17.7622 13.0987 17.6689C13.0632 17.5755 13.0035 17.4933 12.9257 17.4307C12.8478 17.368 12.7548 17.3273 12.656 17.3125H13.5222V21.25Z" fill="#FF6500" stroke="#FF6500" stroke-width="0.5"/>
        <path d="M14.0847 24.625H9.02222C8.87303 24.625 8.72996 24.6843 8.62447 24.7898C8.51898 24.8952 8.45972 25.0383 8.45972 25.1875V30.25C8.45972 30.3992 8.51898 30.5423 8.62447 30.6478C8.72996 30.7532 8.87303 30.8125 9.02222 30.8125H14.0847C14.2339 30.8125 14.377 30.7532 14.4825 30.6478C14.588 30.5423 14.6472 30.3992 14.6472 30.25V25.1875C14.6472 25.0383 14.588 24.8952 14.4825 24.7898C14.377 24.6843 14.2339 24.625 14.0847 24.625ZM12.6278 25.75C12.5214 25.745 12.4156 25.7704 12.323 25.8232C12.2304 25.876 12.1547 25.954 12.1047 26.0481L11.0472 28.09L10.5241 27.3869C10.4688 27.3117 10.3957 27.2515 10.3113 27.2116C10.2269 27.1718 10.1339 27.1535 10.0407 27.1585C9.94755 27.1636 9.85708 27.1917 9.77747 27.2404C9.69786 27.2891 9.63162 27.3568 9.58472 27.4375V25.75H12.6278ZM9.58472 28C9.59409 28.0252 9.60537 28.0497 9.61847 28.0731L10.7097 29.4794C10.7583 29.5421 10.8197 29.5939 10.8897 29.6313L10.991 29.6706H9.58472V28ZM13.5222 29.6875H11.2722H11.3228L11.4241 29.6369C11.4656 29.6011 11.5016 29.5594 11.531 29.5131V29.4794L13.0047 26.6669C13.0687 26.5902 13.1112 26.4979 13.1277 26.3994C13.1442 26.3009 13.1342 26.1997 13.0987 26.1064C13.0632 26.013 13.0035 25.9308 12.9257 25.8682C12.8478 25.8055 12.7548 25.7647 12.656 25.75H13.5222V29.6875Z" fill="#FF6500" stroke="#FF6500" stroke-width="0.5"/>
        <path d="M17.4597 20.6875H25.3347C25.4839 20.6875 25.627 20.6282 25.7325 20.5228C25.838 20.4173 25.8972 20.2742 25.8972 20.125C25.8972 19.9758 25.838 19.8328 25.7325 19.7273C25.627 19.6218 25.4839 19.5625 25.3347 19.5625H17.4597C17.3105 19.5625 17.1675 19.6218 17.062 19.7273C16.9565 19.8328 16.8972 19.9758 16.8972 20.125C16.8972 20.2742 16.9565 20.4173 17.062 20.5228C17.1675 20.6282 17.3105 20.6875 17.4597 20.6875Z" fill="#FF6500" stroke="#FF6500" stroke-width="0.5"/>
        <path d="M30.3972 26.3125H17.4597C17.3105 26.3125 17.1675 26.3718 17.062 26.4773C16.9565 26.5827 16.8972 26.7258 16.8972 26.875C16.8972 27.0242 16.9565 27.1673 17.062 27.2728C17.1675 27.3782 17.3105 27.4375 17.4597 27.4375H30.3972C30.5464 27.4375 30.6895 27.3782 30.795 27.2728C30.9004 27.1673 30.9597 27.0242 30.9597 26.875C30.9597 26.7258 30.9004 26.5827 30.795 26.4773C30.6895 26.3718 30.5464 26.3125 30.3972 26.3125Z" fill="#FF6500" stroke="#FF6500" stroke-width="0.5"/>
        <path d="M17.4597 29.6875H25.3347C25.4839 29.6875 25.627 29.6282 25.7325 29.5228C25.838 29.4173 25.8972 29.2742 25.8972 29.125C25.8972 28.9758 25.838 28.8327 25.7325 28.7273C25.627 28.6218 25.4839 28.5625 25.3347 28.5625H17.4597C17.3105 28.5625 17.1675 28.6218 17.062 28.7273C16.9565 28.8327 16.8972 28.9758 16.8972 29.125C16.8972 29.2742 16.9565 29.4173 17.062 29.5228C17.1675 29.6282 17.3105 29.6875 17.4597 29.6875Z" fill="#FF6500" stroke="#FF6500" stroke-width="0.5"/>
        <path d="M30.3972 34.75H17.4597C17.3105 34.75 17.1675 34.8093 17.062 34.9148C16.9565 35.0202 16.8972 35.1633 16.8972 35.3125C16.8972 35.4617 16.9565 35.6048 17.062 35.7103C17.1675 35.8157 17.3105 35.875 17.4597 35.875H30.3972C30.5464 35.875 30.6895 35.8157 30.795 35.7103C30.9004 35.6048 30.9597 35.4617 30.9597 35.3125C30.9597 35.1633 30.9004 35.0202 30.795 34.9148C30.6895 34.8093 30.5464 34.75 30.3972 34.75Z" fill="#FF6500" stroke="#FF6500" stroke-width="0.5"/>
        <path d="M25.3347 37H17.4597C17.3105 37 17.1675 37.0593 17.062 37.1648C16.9565 37.2702 16.8972 37.4133 16.8972 37.5625C16.8972 37.7117 16.9565 37.8548 17.062 37.9603C17.1675 38.0657 17.3105 38.125 17.4597 38.125H25.3347C25.4839 38.125 25.627 38.0657 25.7325 37.9603C25.838 37.8548 25.8972 37.7117 25.8972 37.5625C25.8972 37.4133 25.838 37.2702 25.7325 37.1648C25.627 37.0593 25.4839 37 25.3347 37Z" fill="#FF6500" stroke="#FF6500" stroke-width="0.5"/>
        <path d="M14.0847 7.75001H9.02222C8.87303 7.75001 8.72996 7.80928 8.62447 7.91477C8.51898 8.02025 8.45972 8.16333 8.45972 8.31251V13.375C8.45972 13.5242 8.51898 13.6673 8.62447 13.7728C8.72996 13.8782 8.87303 13.9375 9.02222 13.9375H14.0847C14.2339 13.9375 14.377 13.8782 14.4825 13.7728C14.588 13.6673 14.6472 13.5242 14.6472 13.375V8.31251C14.6472 8.16333 14.588 8.02025 14.4825 7.91477C14.377 7.80928 14.2339 7.75001 14.0847 7.75001ZM12.6278 8.87501C12.5214 8.87003 12.4156 8.89541 12.323 8.94819C12.2304 9.00097 12.1547 9.07898 12.1047 9.17314L11.0472 11.215L10.5241 10.5119C10.4688 10.4367 10.3957 10.3765 10.3113 10.3366C10.2269 10.2968 10.1339 10.2785 10.0407 10.2835C9.94755 10.2886 9.85708 10.3167 9.77747 10.3654C9.69786 10.4141 9.63162 10.4818 9.58472 10.5625V8.87501H12.6278ZM9.58472 11.125C9.59409 11.1502 9.60537 11.1747 9.61847 11.1981L10.7097 12.6044C10.7583 12.6671 10.8197 12.7189 10.8897 12.7563V12.7563L10.991 12.7956H9.58472V11.125ZM13.5222 12.8125H11.2722H11.3228L11.4241 12.7619C11.4656 12.7261 11.5016 12.6844 11.531 12.6381V12.6044L13.0047 9.79189C13.0465 9.71 13.0675 9.61912 13.066 9.52722C13.0645 9.43532 13.0405 9.34518 12.9961 9.2647C12.9517 9.18422 12.8882 9.11585 12.8113 9.06557C12.7343 9.01528 12.6463 8.98462 12.5547 8.97626H13.5222V12.8125Z" fill="#FF6500" stroke="#FF6500" stroke-width="0.5"/>
        <path d="M14.0847 33.0625H9.02222C8.87303 33.0625 8.72996 33.1218 8.62447 33.2273C8.51898 33.3327 8.45972 33.4758 8.45972 33.625V38.6875C8.45972 38.8367 8.51898 38.9798 8.62447 39.0853C8.72996 39.1907 8.87303 39.25 9.02222 39.25H14.0847C14.2339 39.25 14.377 39.1907 14.4825 39.0853C14.588 38.9798 14.6472 38.8367 14.6472 38.6875V33.625C14.6472 33.4758 14.588 33.3327 14.4825 33.2273C14.377 33.1218 14.2339 33.0625 14.0847 33.0625ZM12.6278 34.1875C12.5214 34.1825 12.4156 34.2079 12.323 34.2607C12.2304 34.3135 12.1547 34.3915 12.1047 34.4856L11.0472 36.5275L10.5241 35.8244C10.4688 35.7492 10.3957 35.689 10.3113 35.6491C10.2269 35.6093 10.1339 35.591 10.0407 35.596C9.94755 35.6011 9.85708 35.6292 9.77747 35.6779C9.69786 35.7266 9.63162 35.7943 9.58472 35.875V34.1875H12.6278ZM9.58472 36.4375C9.59409 36.4627 9.60537 36.4871 9.61847 36.5106L10.7097 37.9169C10.7583 37.9796 10.8197 38.0314 10.8897 38.0688L10.991 38.1081H9.58472V36.4375ZM13.5222 38.125H11.2722H11.3228L11.4241 38.0744C11.4656 38.0386 11.5016 37.9969 11.531 37.9506V37.9169L13.0047 35.1044C13.0687 35.0277 13.1112 34.9354 13.1277 34.8369C13.1442 34.7384 13.1342 34.6372 13.0987 34.5439C13.0632 34.4505 13.0035 34.3683 12.9257 34.3057C12.8478 34.243 12.7548 34.2022 12.656 34.1875H13.5222V38.125Z" fill="#FF6500" stroke="#FF6500" stroke-width="0.5"/>
        <path d="M43.9984 10.5625C43.9948 8.24941 43.1218 6.0222 41.5526 4.32276C39.9834 2.62332 37.8327 1.57584 35.5272 1.38814C35.0601 1.13193 34.5356 0.998396 34.0028 1.00001H5.41658C4.5831 1.0015 3.78418 1.33326 3.19482 1.92262C2.60545 2.51199 2.27369 3.31091 2.27221 4.14439V6.12439L1.26533 6.74876C1.20254 6.78791 1.14808 6.83905 1.10505 6.89924C1.06203 6.95944 1.03128 7.02753 1.01457 7.09961C0.980809 7.24518 1.00626 7.39821 1.08533 7.52501C1.1644 7.65182 1.2906 7.74202 1.43618 7.77578C1.58175 7.80954 1.73478 7.78408 1.86158 7.70501L2.27221 7.44626V12.8688L1.26533 13.4931C1.20254 13.5323 1.14808 13.5834 1.10505 13.6436C1.06203 13.7038 1.03128 13.7719 1.01457 13.844C0.997851 13.9161 0.995498 13.9907 1.00764 14.0637C1.01978 14.1367 1.04618 14.2066 1.08533 14.2694C1.12448 14.3322 1.17562 14.3866 1.23581 14.4297C1.29601 14.4727 1.3641 14.5034 1.43618 14.5202C1.50826 14.5369 1.58293 14.5392 1.65592 14.5271C1.72891 14.5149 1.79879 14.4885 1.86158 14.4494L2.27221 14.1906V19.6131L1.26533 20.2375C1.20254 20.2767 1.14808 20.3278 1.10505 20.388C1.06203 20.4482 1.03128 20.5163 1.01457 20.5884C0.997851 20.6604 0.995498 20.7351 1.00764 20.8081C1.01978 20.8811 1.04618 20.951 1.08533 21.0138C1.12448 21.0765 1.17562 21.131 1.23581 21.174C1.29601 21.2171 1.3641 21.2478 1.43618 21.2645C1.50826 21.2812 1.58293 21.2836 1.65592 21.2715C1.72891 21.2593 1.79879 21.2329 1.86158 21.1938L2.27221 20.935V26.3575L1.26533 26.9819C1.20254 27.021 1.14808 27.0722 1.10505 27.1324C1.06203 27.1926 1.03128 27.2606 1.01457 27.3327C0.997851 27.4048 0.995498 27.4795 1.00764 27.5525C1.01978 27.6255 1.04618 27.6953 1.08533 27.7581C1.12448 27.8209 1.17562 27.8754 1.23581 27.9184C1.29601 27.9614 1.3641 27.9922 1.43618 28.0089C1.50826 28.0256 1.58293 28.028 1.65592 28.0158C1.72891 28.0037 1.79879 27.9773 1.86158 27.9381L2.27221 27.6794V33.1019L1.26533 33.7263C1.20254 33.7654 1.14808 33.8165 1.10505 33.8767C1.06203 33.9369 1.03128 34.005 1.01457 34.0771C0.997851 34.1492 0.995498 34.2238 1.00764 34.2968C1.01978 34.3698 1.04618 34.4397 1.08533 34.5025C1.12448 34.5653 1.17562 34.6198 1.23581 34.6628C1.29601 34.7058 1.3641 34.7366 1.43618 34.7533C1.50826 34.77 1.58293 34.7723 1.65592 34.7602C1.72891 34.7481 1.79879 34.7217 1.86158 34.6825L2.27221 34.4238V39.8462L1.26533 40.4706C1.20254 40.5098 1.14808 40.5609 1.10505 40.6211C1.06203 40.6813 1.03128 40.7494 1.01457 40.8215C0.997851 40.8935 0.995498 40.9682 1.00764 41.0412C1.01978 41.1142 1.04618 41.1841 1.08533 41.2469C1.12448 41.3097 1.17562 41.3641 1.23581 41.4072C1.29601 41.4502 1.3641 41.4809 1.43618 41.4976C1.50826 41.5144 1.58293 41.5167 1.65592 41.5046C1.72891 41.4924 1.79879 41.466 1.86158 41.4269L2.27221 41.1681V42.8219C2.2685 43.2374 2.34705 43.6496 2.50334 44.0347C2.65962 44.4197 2.89056 44.7701 3.18284 45.0655C3.47512 45.3609 3.82296 45.5955 4.20633 45.7559C4.5897 45.9163 5.00101 45.9993 5.41658 46H34.0028C34.8363 45.9985 35.6352 45.6668 36.2246 45.0774C36.814 44.488 37.1457 43.6891 37.1472 42.8556V19.5625C37.1502 19.5288 37.1502 19.4949 37.1472 19.4613C39.1098 18.9396 40.8453 17.7846 42.0842 16.1755C43.323 14.5664 43.996 12.5933 43.9984 10.5625ZM39.9035 15.0063C39.7958 14.9141 39.6574 14.866 39.5159 14.8714C39.3743 14.8769 39.24 14.9356 39.1398 15.0358C39.0396 15.1359 38.981 15.2702 38.9755 15.4118C38.97 15.5534 39.0182 15.6918 39.1103 15.7994L40.0778 16.7106C38.777 17.8157 37.1612 18.4829 35.4597 18.6175V17.3575C35.4597 17.2083 35.4004 17.0653 35.2949 16.9598C35.1895 16.8543 35.0464 16.795 34.8972 16.795C34.748 16.795 34.6049 16.8543 34.4995 16.9598C34.394 17.0653 34.3347 17.2083 34.3347 17.3575V18.6175C32.6015 18.4856 30.9513 17.8216 29.6097 16.7163L30.4985 15.805C30.6032 15.6996 30.662 15.5571 30.662 15.4084C30.662 15.2598 30.6032 15.1173 30.4985 15.0119C30.4461 14.9583 30.3835 14.9157 30.3144 14.8867C30.2454 14.8576 30.1712 14.8426 30.0963 14.8426C30.0213 14.8426 29.9472 14.8576 29.8781 14.8867C29.809 14.9157 29.7465 14.9583 29.6941 15.0119L28.7716 15.8669C27.6194 14.5345 26.908 12.878 26.7353 11.125H28.1472C28.2964 11.125 28.4395 11.0657 28.545 10.9603C28.6504 10.8548 28.7097 10.7117 28.7097 10.5625C28.7097 10.4133 28.6504 10.2703 28.545 10.1648C28.4395 10.0593 28.2964 10 28.1472 10H26.7241C26.8415 8.26072 27.5094 6.60391 28.631 5.26939L29.6716 6.34376C29.7227 6.39895 29.7844 6.44332 29.853 6.47424C29.9216 6.50516 29.9957 6.522 30.071 6.52376C30.1804 6.52226 30.287 6.48886 30.3778 6.42765C30.4685 6.36645 30.5394 6.2801 30.5818 6.17919C30.6242 6.07827 30.6363 5.96718 30.6164 5.85954C30.5966 5.75189 30.5459 5.65235 30.4703 5.57314L29.4747 4.52689C30.8441 3.3628 32.5436 2.65665 34.3347 2.50751V4.02626C34.3347 4.17545 34.394 4.31852 34.4995 4.42401C34.6049 4.5295 34.748 4.58876 34.8972 4.58876C35.0464 4.58876 35.1895 4.5295 35.2949 4.42401C35.4004 4.31852 35.4597 4.17545 35.4597 4.02626V2.50751C37.2173 2.66022 38.8805 3.3696 40.2072 4.53251L39.1328 5.57876C39.0281 5.68415 38.9693 5.82672 38.9693 5.97533C38.9693 6.12393 39.0281 6.2665 39.1328 6.37189C39.2362 6.47445 39.3753 6.53293 39.521 6.53501C39.6685 6.53439 39.8099 6.47581 39.9147 6.37189L40.9553 5.24689C42.0776 6.58874 42.7418 8.2541 42.8509 10H41.456C41.3068 10 41.1637 10.0593 41.0582 10.1648C40.9527 10.2703 40.8935 10.4133 40.8935 10.5625C40.8935 10.7117 40.9527 10.8548 41.0582 10.9603C41.1637 11.0657 41.3068 11.125 41.456 11.125H42.8397C42.6721 12.8762 41.9667 14.5326 40.8203 15.8669L39.9035 15.0063ZM36.0222 42.8556C36.0207 43.3907 35.8075 43.9035 35.4291 44.2819C35.0507 44.6603 34.5379 44.8735 34.0028 44.875H5.41658C4.88147 44.8735 4.36869 44.6603 3.99031 44.2819C3.61192 43.9035 3.39869 43.3907 3.39721 42.8556V40.4988L4.60658 39.745C4.66937 39.7058 4.72383 39.6547 4.76686 39.5945C4.80988 39.5343 4.84063 39.4662 4.85735 39.3942C4.87406 39.3221 4.87642 39.2474 4.86427 39.1744C4.85213 39.1014 4.82573 39.0315 4.78658 38.9688C4.74743 38.906 4.6963 38.8515 4.6361 38.8085C4.5759 38.7654 4.50782 38.7347 4.43574 38.718C4.36365 38.7013 4.28899 38.6989 4.216 38.7111C4.14301 38.7232 4.07312 38.7496 4.01033 38.7887L3.39721 39.1769V33.7488L4.60658 32.995C4.66937 32.9559 4.72383 32.9047 4.76686 32.8445C4.80988 32.7843 4.84063 32.7162 4.85735 32.6442C4.87406 32.5721 4.87642 32.4974 4.86427 32.4244C4.85213 32.3514 4.82573 32.2815 4.78658 32.2188C4.74743 32.156 4.6963 32.1015 4.6361 32.0585C4.5759 32.0155 4.50782 31.9847 4.43574 31.968C4.36365 31.9513 4.28899 31.9489 4.216 31.9611C4.14301 31.9732 4.07312 31.9996 4.01033 32.0388L3.39721 32.4269V26.9988L4.60658 26.245C4.73339 26.1659 4.82359 26.0397 4.85735 25.8942C4.89111 25.7486 4.86565 25.5956 4.78658 25.4688C4.70751 25.342 4.58131 25.2517 4.43574 25.218C4.29016 25.1842 4.13714 25.2097 4.01033 25.2888L3.39721 25.6769V20.2488L4.60658 19.495C4.73339 19.4159 4.82359 19.2897 4.85735 19.1442C4.89111 18.9986 4.86565 18.8456 4.78658 18.7188C4.70751 18.592 4.58131 18.5017 4.43574 18.468C4.29016 18.4342 4.13714 18.4597 4.01033 18.5388L3.39721 18.9269V13.4988L4.60658 12.745C4.66937 12.7059 4.72383 12.6547 4.76686 12.5945C4.80988 12.5343 4.84063 12.4662 4.85735 12.3942C4.87406 12.3221 4.87642 12.2474 4.86427 12.1744C4.85213 12.1014 4.82573 12.0315 4.78658 11.9688C4.74743 11.906 4.6963 11.8515 4.6361 11.8085C4.5759 11.7655 4.50782 11.7347 4.43574 11.718C4.36365 11.7013 4.28899 11.6989 4.216 11.7111C4.14301 11.7232 4.07312 11.7496 4.01033 11.7888L3.39721 12.1769V6.74876L4.60658 5.99501C4.66937 5.95586 4.72383 5.90473 4.76686 5.84453C4.80988 5.78433 4.84063 5.71625 4.85735 5.64417C4.87406 5.57209 4.87642 5.49742 4.86427 5.42443C4.85213 5.35144 4.82573 5.28155 4.78658 5.21876C4.74743 5.15598 4.6963 5.10151 4.6361 5.05849C4.5759 5.01546 4.50782 4.98471 4.43574 4.968C4.36365 4.95128 4.28899 4.94893 4.216 4.96107C4.14301 4.97321 4.07312 4.99961 4.01033 5.03876L3.39721 5.42689V4.14439C3.39869 3.60927 3.61192 3.0965 3.99031 2.71811C4.36869 2.33973 4.88147 2.1265 5.41658 2.12501H31.106C29.7299 2.72872 28.5219 3.65906 27.5867 4.83532C26.6516 6.01159 26.0176 7.39825 25.7397 8.87501H17.4597C17.3105 8.87501 17.1674 8.93428 17.062 9.03976C16.9565 9.14525 16.8972 9.28833 16.8972 9.43751C16.8972 9.5867 16.9565 9.72977 17.062 9.83526C17.1674 9.94075 17.3105 10 17.4597 10H25.6047C25.6047 10.1856 25.5766 10.3713 25.5766 10.5625C25.5766 10.7538 25.5766 10.9394 25.6047 11.125H17.4597C17.3105 11.125 17.1674 11.1843 17.062 11.2898C16.9565 11.3953 16.8972 11.5383 16.8972 11.6875C16.8972 11.8367 16.9565 11.9798 17.062 12.0853C17.1674 12.1907 17.3105 12.25 17.4597 12.25H25.7397C26.1072 14.1965 27.0937 15.9722 28.5522 17.3125H17.4597C17.3105 17.3125 17.1674 17.3718 17.062 17.4773C16.9565 17.5828 16.8972 17.7258 16.8972 17.875C16.8972 18.0242 16.9565 18.1673 17.062 18.2728C17.1674 18.3782 17.3105 18.4375 17.4597 18.4375H29.8347C29.8864 18.4352 29.9375 18.4257 29.9866 18.4094C31.7842 19.535 33.9232 19.9855 36.0222 19.6806V42.8556Z" fill="#FF6500" stroke="#FF6500" stroke-width="0.5"/>
        <path d="M39.3972 10H35.4597V5.50001C35.4597 5.35083 35.4005 5.20775 35.295 5.10227C35.1895 4.99678 35.0464 4.93751 34.8972 4.93751C34.748 4.93751 34.605 4.99678 34.4995 5.10227C34.394 5.20775 34.3347 5.35083 34.3347 5.50001V10.5625C34.3347 10.7117 34.394 10.8548 34.4995 10.9603C34.605 11.0657 34.748 11.125 34.8972 11.125H39.3972C39.5464 11.125 39.6895 11.0657 39.795 10.9603C39.9005 10.8548 39.9597 10.7117 39.9597 10.5625C39.9597 10.4133 39.9005 10.2703 39.795 10.1648C39.6895 10.0593 39.5464 10 39.3972 10Z" fill="#FF6500" stroke="#FF6500" stroke-width="0.5"/>
    </symbol>

<!-- TESTIMONIALS -->

    <symbol id="comillas" viewBox="0 0 30 24">
        <title>Comillas</title>
        <path d="M0.980713 19.128C0.980713 15.416 2.10071 11.992 4.34071 8.85601C6.58071 5.72001 9.14071 3.09601 12.0207 0.984009L14.3247 3.67201C11.2527 6.55201 9.71671 9.43201 9.71671 12.312C9.71671 13.144 9.90871 14.232 10.2927 15.576C10.6767 16.92 10.8687 18.168 10.8687 19.32C10.8687 20.408 10.4207 21.464 9.52471 22.488C8.62871 23.448 7.41271 23.928 5.87671 23.928C4.34071 23.928 3.12471 23.48 2.22871 22.584C1.39671 21.624 0.980713 20.472 0.980713 19.128ZM16.6287 19.128C16.6287 15.416 17.7487 11.992 19.9887 8.85601C22.2287 5.72001 24.7887 3.09601 27.6687 0.984009L29.8767 3.67201C26.8687 6.48801 25.3647 9.36801 25.3647 12.312C25.3647 13.144 25.5567 14.232 25.9407 15.576C26.3247 16.92 26.5167 18.168 26.5167 19.32C26.5167 20.408 26.0687 21.464 25.1727 22.488C24.2767 23.448 23.0287 23.928 21.4287 23.928C19.8927 23.928 18.7087 23.48 17.8767 22.584C17.0447 21.624 16.6287 20.472 16.6287 19.128Z" fill="#FF6500"/>
    </symbol>

    <symbol id="miscelanea" viewBox="0 0 74 73">
        <path fill-rule="evenodd" clip-rule="evenodd" d="M72.9072 1.17656C71.3381 -0.392186 68.8724 -0.392186 67.3033 1.17656L2.29762 66.1674C0.728513 67.7361 0.728513 70.2013 2.29762 71.7701C3.08217 72.5544 4.09088 72.8906 5.09958 72.8906C6.10829 72.8906 7.117 72.5544 7.90155 71.7701L72.9072 6.77922C74.3643 5.32253 74.3643 2.7453 72.9072 1.17656Z" fill="#FF6500"/>
        <path fill-rule="evenodd" clip-rule="evenodd" d="M3.9788 45.9978C4.98751 45.9978 5.99622 45.6617 6.78077 44.8773L37.042 14.623C38.6112 13.0542 38.6112 10.5891 37.042 9.02031C35.4729 7.45156 33.0072 7.45156 31.4381 9.02031L1.17683 39.2746C-0.392276 40.8434 -0.392276 43.3086 1.17683 44.8773C1.96138 45.6617 2.97009 45.9978 3.9788 45.9978Z" fill="#FF6500"/>
    </symbol>
</svg>