<svg 
    xmlns="http://www.w3.org/2000/svg" >
    <symbol id="logo" viewBox="0 0 112.4454 47.8417">
        <title>Logo-100px</title>
        <polygon class="a" points="6.223 8.858 12.85 8.858 21.286 29.88 29.721 8.858 36.348 8.858 21.286 42.749 6.223 8.858"/>
        <rect class="b" x="39.6955" y="8.8581" width="5.4393" height="33.0544"/>
        <path class="a" d="M97.4442,36.743H84.8771l-2.4537,6.0063H76.0972L91.1609,8.8581l15.0618,33.8912H99.8964Zm-2.1523-5.2336-4.131-10.0383L87.0283,31.5094Z"/>
        <path class="a" d="M65.93,42.7493a15.7471,15.7471,0,0,0,7.6571-1.9478V33.79a10.3315,10.3315,0,0,1-7.7851,3.2452,11.2093,11.2093,0,0,1-11.2242-9.7669H48.9005A17.0165,17.0165,0,0,0,65.93,42.7493Z"/>
        <path class="a" d="M65.8462,14.5708a10.6634,10.6634,0,0,1,7.74,3.202V10.8044a15.7552,15.7552,0,0,0-7.6552-1.9463,16.9759,16.9759,0,0,0-17.031,15.4811h5.6831A11.2551,11.2551,0,0,1,65.8462,14.5708Z"/>
        <polygon class="a" points="38.022 5.092 27.498 5.092 27.498 5.095 27.495 5.095 20.449 22.814 21.389 25.176 28.666 6.875 37.241 6.875 38.022 5.095 38.022 5.092"/>
    </symbol>

    <symbol id="logo-v" viewBox="0 0 28 32">
    <path fill-rule="evenodd" clip-rule="evenodd" d="M0 3.19995H5.61716L12.7986 21.0489L19.98 3.19995H25.5972L12.7986 32L0 3.19995Z" fill="white"/>
    <path fill-rule="evenodd" clip-rule="evenodd" d="M27.0192 0H18.0602L12.0875 15.0756L12.8697 17.0667L19.0557 1.52889H26.3437L27.0192 0Z" fill="white"/>
</symbol>


<symbol id="gestion" viewBox="0 0 60 50">
    <title>Gestión-de-pedidos</title>
    <path d="M21 48C21 49.1046 21.8954 50 23 50H37C38.1046 50 39 49.1046 39 48V30C39 28.8954 38.1046 28 37 28H31V21C31 20.7348 30.8946 20.4804 30.7071 20.2929C30.5196 20.1054 30.2652 20 30 20C29.7348 20 29.4804 20.1054 29.2929 20.2929C29.1054 20.4804 29 20.7348 29 21V28H23C21.8954 28 21 28.8954 21 30V48ZM23 30H37V48H23V30Z" fill="#FF6500"/>
    <path d="M34 32H26C25.4477 32 25 32.4477 25 33C25 33.5523 25.4477 34 26 34H34C34.5523 34 35 33.5523 35 33C35 32.4477 34.5523 32 34 32Z" fill="#FF6500"/>
    <path d="M25 37C25 37.5523 25.4477 38 26 38C26.5523 38 27 37.5523 27 37C27 36.4477 26.5523 36 26 36C25.4477 36 25 36.4477 25 37Z" fill="#FF6500"/>
    <path d="M34 36H30C29.4477 36 29 36.4477 29 37C29 37.5523 29.4477 38 30 38H34C34.5523 38 35 37.5523 35 37C35 36.4477 34.5523 36 34 36Z" fill="#FF6500"/>
    <path d="M34 40H26C25.4477 40 25 40.4477 25 41C25 41.5523 25.4477 42 26 42H34C34.5523 42 35 41.5523 35 41C35 40.4477 34.5523 40 34 40Z" fill="#FF6500"/>
    <path d="M25 45C25 45.5523 25.4477 46 26 46C26.5523 46 27 45.5523 27 45C27 44.4477 26.5523 44 26 44C25.4477 44 25 44.4477 25 45Z" fill="#FF6500"/>
    <path d="M34 44H30C29.4477 44 29 44.4477 29 45C29 45.5523 29.4477 46 30 46H34C34.5523 46 35 45.5523 35 45C35 44.4477 34.5523 44 34 44Z" fill="#FF6500"/>
    <path d="M18 30C18 28.8954 17.1046 28 16 28H2C0.89543 28 0 28.8954 0 30V48C0 49.1046 0.895431 50 2 50H16C17.1046 50 18 49.1046 18 48V30ZM16 48H2V30H16V48Z" fill="#FF6500"/>
    <path d="M60 30C60 28.8954 59.1046 28 58 28H44C42.8954 28 42 28.8954 42 30V48C42 49.1046 42.8954 50 44 50H58C59.1046 50 60 49.1046 60 48V30ZM58 48H44V30H58V48Z" fill="#FF6500"/>
    <path d="M13 32H5C4.44772 32 4 32.4477 4 33C4 33.5523 4.44772 34 5 34H13C13.5523 34 14 33.5523 14 33C14 32.4477 13.5523 32 13 32Z" fill="#FF6500"/>
    <path d="M55 32H47C46.4477 32 46 32.4477 46 33C46 33.5523 46.4477 34 47 34H55C55.5523 34 56 33.5523 56 33C56 32.4477 55.5523 32 55 32Z" fill="#FF6500"/>
    <path d="M4 37C4 37.5523 4.44772 38 5 38C5.55228 38 6 37.5523 6 37C6 36.4477 5.55228 36 5 36C4.44772 36 4 36.4477 4 37Z" fill="#FF6500"/>
    <path d="M46 37C46 37.5523 46.4477 38 47 38C47.5523 38 48 37.5523 48 37C48 36.4477 47.5523 36 47 36C46.4477 36 46 36.4477 46 37Z" fill="#FF6500"/>
    <path d="M13 36H9C8.44772 36 8 36.4477 8 37C8 37.5523 8.44772 38 9 38H13C13.5523 38 14 37.5523 14 37C14 36.4477 13.5523 36 13 36Z" fill="#FF6500"/>
    <path d="M55 36H51C50.4477 36 50 36.4477 50 37C50 37.5523 50.4477 38 51 38H55C55.5523 38 56 37.5523 56 37C56 36.4477 55.5523 36 55 36Z" fill="#FF6500"/>
    <path d="M13 40H5C4.44772 40 4 40.4477 4 41C4 41.5523 4.44772 42 5 42H13C13.5523 42 14 41.5523 14 41C14 40.4477 13.5523 40 13 40Z" fill="#FF6500"/>
    <path d="M55 40H47C46.4477 40 46 40.4477 46 41C46 41.5523 46.4477 42 47 42H55C55.5523 42 56 41.5523 56 41C56 40.4477 55.5523 40 55 40Z" fill="#FF6500"/>
    <path d="M4 45C4 45.5523 4.44772 46 5 46C5.55228 46 6 45.5523 6 45C6 44.4477 5.55228 44 5 44C4.44772 44 4 44.4477 4 45Z" fill="#FF6500"/>
    <path d="M46 45C46 45.5523 46.4477 46 47 46C47.5523 46 48 45.5523 48 45C48 44.4477 47.5523 44 47 44C46.4477 44 46 44.4477 46 45Z" fill="#FF6500"/>
    <path d="M13 44H9C8.44772 44 8 44.4477 8 45C8 45.5523 8.44772 46 9 46H13C13.5523 46 14 45.5523 14 45C14 44.4477 13.5523 44 13 44Z" fill="#FF6500"/>
    <path d="M55 44H51C50.4477 44 50 44.4477 50 45C50 45.5523 50.4477 46 51 46H55C55.5523 46 56 45.5523 56 45C56 44.4477 55.5523 44 55 44Z" fill="#FF6500"/>
    <path d="M20 16H9C8.73478 16 8.48043 16.1054 8.29289 16.2929C8.10536 16.4804 8 16.7348 8 17V25C8 25.2652 8.10536 25.5196 8.29289 25.7071C8.48043 25.8946 8.73478 26 9 26C9.26522 26 9.51957 25.8946 9.70711 25.7071C9.89464 25.5196 10 25.2652 10 25V18H20C20.2652 18 20.5196 17.8946 20.7071 17.7071C20.8946 17.5196 21 17.2652 21 17C21 16.7348 20.8946 16.4804 20.7071 16.2929C20.5196 16.1054 20.2652 16 20 16Z" fill="#FF6500"/>
    <path d="M51 26C51.2652 26 51.5196 25.8946 51.7071 25.7071C51.8946 25.5196 52 25.2652 52 25V17C52 16.7348 51.8946 16.4804 51.7071 16.2929C51.5196 16.1054 51.2652 16 51 16H40C39.7348 16 39.4804 16.1054 39.2929 16.2929C39.1054 16.4804 39 16.7348 39 17C39 17.2652 39.1054 17.5196 39.2929 17.7071C39.4804 17.8946 39.7348 18 40 18H50V25C50 25.2652 50.1054 25.5196 50.2929 25.7071C50.4804 25.8946 50.7348 26 51 26Z" fill="#FF6500"/>
    <path fill-rule="evenodd" clip-rule="evenodd" d="M30 1C27.5463 1 25.5571 3.02673 25.5571 5.52683C25.5571 8.02693 27.5463 10.0537 30 10.0537C32.4538 10.0537 34.443 8.02693 34.443 5.52683C34.443 3.02673 32.4538 1 30 1ZM26.7717 5.52683C26.7717 3.71021 28.2171 2.23755 30 2.23755C31.783 2.23755 33.2284 3.71021 33.2284 5.52683C33.2284 7.34345 31.783 8.81611 30 8.81611C28.2171 8.81611 26.7717 7.34345 26.7717 5.52683Z" fill="#FF6500"/>
    <path d="M24.2146 17.3812C24.2146 15.3506 24.7854 13.9382 25.7338 13.028C26.6883 12.1117 28.1162 11.6168 29.9999 11.6168C31.8837 11.6168 33.3116 12.1117 34.2662 13.028C35.2146 13.9382 35.7854 15.3506 35.7854 17.3812C35.7854 17.723 36.0573 18 36.3927 18C36.7281 18 37 17.723 37 17.3812C37 15.113 36.3562 13.3338 35.0991 12.1272C33.8482 10.9265 32.0797 10.3793 29.9999 10.3793C27.9202 10.3793 26.1518 10.9265 24.9009 12.1272C23.6438 13.3338 23 15.113 23 17.3812C23 17.723 23.2719 18 23.6073 18C23.9427 18 24.2146 17.723 24.2146 17.3812Z" fill="#FF6500"/>
    <path fill-rule="evenodd" clip-rule="evenodd" d="M30 1.5C27.8312 1.5 26.0571 3.29401 26.0571 5.52683C26.0571 7.75964 27.8312 9.55366 30 9.55366C32.1689 9.55366 33.943 7.75964 33.943 5.52683C33.943 3.29401 32.1689 1.5 30 1.5ZM25.0571 5.52683C25.0571 2.75944 27.2613 0.5 30 0.5C32.7387 0.5 34.943 2.75944 34.943 5.52683C34.943 7.53644 33.7806 9.27819 32.0953 10.0814C33.3923 10.3498 34.5365 10.8942 35.4453 11.7664C36.8279 13.0935 37.5 15.0199 37.5 17.3812C37.5 17.9903 37.013 18.5 36.3927 18.5C35.7724 18.5 35.2854 17.9903 35.2854 17.3812C35.2854 15.4442 34.7431 14.1788 33.92 13.3887C33.087 12.5892 31.8005 12.1168 29.9999 12.1168C28.1994 12.1168 26.9129 12.5892 26.08 13.3887C25.2569 14.1787 24.7146 15.4442 24.7146 17.3812C24.7146 17.9903 24.2276 18.5 23.6073 18.5C22.987 18.5 22.5 17.9903 22.5 17.3812C22.5 15.0199 23.1721 13.0935 24.5546 11.7664C25.4634 10.8942 26.6076 10.3497 27.9047 10.0814C26.2194 9.27816 25.0571 7.53642 25.0571 5.52683ZM26.2717 5.52683C26.2717 3.44292 27.9322 1.73755 30 1.73755C32.0679 1.73755 33.7284 3.44292 33.7284 5.52683C33.7284 7.61073 32.0679 9.31611 30 9.31611C27.9322 9.31611 26.2717 7.61073 26.2717 5.52683ZM30 2.73755C28.502 2.73755 27.2717 3.97749 27.2717 5.52683C27.2717 7.07616 28.502 8.31611 30 8.31611C31.4981 8.31611 32.7284 7.07616 32.7284 5.52683C32.7284 3.97749 31.4981 2.73755 30 2.73755ZM29.9999 10.8793C28.003 10.8793 26.3762 11.4042 25.2471 12.4879C24.1155 13.5741 23.5 15.2061 23.5 17.3812C23.5 17.4557 23.5568 17.5 23.6073 17.5C23.6578 17.5 23.7146 17.4557 23.7146 17.3812C23.7146 15.257 24.314 13.6977 25.3875 12.6672C26.4637 11.6343 28.033 11.1168 29.9999 11.1168C31.9669 11.1168 33.5362 11.6343 34.6124 12.6672C35.686 13.6977 36.2854 15.257 36.2854 17.3812C36.2854 17.4557 36.3422 17.5 36.3927 17.5C36.4432 17.5 36.5 17.4557 36.5 17.3812C36.5 15.2061 35.8845 13.5741 34.7528 12.4879C33.6238 11.4042 31.9969 10.8793 29.9999 10.8793Z" fill="#FF6500"/>
</symbol>

<symbol id="comillas" viewBox="0 0 30 24">
    <title>Comillas</title>
    <path d="M0.980713 19.128C0.980713 15.416 2.10071 11.992 4.34071 8.85601C6.58071 5.72001 9.14071 3.09601 12.0207 0.984009L14.3247 3.67201C11.2527 6.55201 9.71671 9.43201 9.71671 12.312C9.71671 13.144 9.90871 14.232 10.2927 15.576C10.6767 16.92 10.8687 18.168 10.8687 19.32C10.8687 20.408 10.4207 21.464 9.52471 22.488C8.62871 23.448 7.41271 23.928 5.87671 23.928C4.34071 23.928 3.12471 23.48 2.22871 22.584C1.39671 21.624 0.980713 20.472 0.980713 19.128ZM16.6287 19.128C16.6287 15.416 17.7487 11.992 19.9887 8.85601C22.2287 5.72001 24.7887 3.09601 27.6687 0.984009L29.8767 3.67201C26.8687 6.48801 25.3647 9.36801 25.3647 12.312C25.3647 13.144 25.5567 14.232 25.9407 15.576C26.3247 16.92 26.5167 18.168 26.5167 19.32C26.5167 20.408 26.0687 21.464 25.1727 22.488C24.2767 23.448 23.0287 23.928 21.4287 23.928C19.8927 23.928 18.7087 23.48 17.8767 22.584C17.0447 21.624 16.6287 20.472 16.6287 19.128Z" fill="#FF6500"/>
</symbol>
</svg>