<svg xmlns="http://www.w3.org/2000/svg" >
    <symbol id="logo" viewBox="0 0 112.4454 47.8417">
        <title>Logo-100px</title>
        <polygon class="a" points="6.223 8.858 12.85 8.858 21.286 29.88 29.721 8.858 36.348 8.858 21.286 42.749 6.223 8.858"/>
        <rect class="b" x="39.6955" y="8.8581" width="5.4393" height="33.0544"/>
        <path class="a" d="M97.4442,36.743H84.8771l-2.4537,6.0063H76.0972L91.1609,8.8581l15.0618,33.8912H99.8964Zm-2.1523-5.2336-4.131-10.0383L87.0283,31.5094Z"/>
        <path class="a" d="M65.93,42.7493a15.7471,15.7471,0,0,0,7.6571-1.9478V33.79a10.3315,10.3315,0,0,1-7.7851,3.2452,11.2093,11.2093,0,0,1-11.2242-9.7669H48.9005A17.0165,17.0165,0,0,0,65.93,42.7493Z"/>
        <path class="a" d="M65.8462,14.5708a10.6634,10.6634,0,0,1,7.74,3.202V10.8044a15.7552,15.7552,0,0,0-7.6552-1.9463,16.9759,16.9759,0,0,0-17.031,15.4811h5.6831A11.2551,11.2551,0,0,1,65.8462,14.5708Z"/>
        <polygon class="a" points="38.022 5.092 27.498 5.092 27.498 5.095 27.495 5.095 20.449 22.814 21.389 25.176 28.666 6.875 37.241 6.875 38.022 5.095 38.022 5.092"/>
    </symbol>

    <symbol id="logo-v" viewBox="0 0 28 32">
        <path fill-rule="evenodd" clip-rule="evenodd" d="M0 3.19995H5.61716L12.7986 21.0489L19.98 3.19995H25.5972L12.7986 32L0 3.19995Z" fill="white"/>
        <path fill-rule="evenodd" clip-rule="evenodd" d="M27.0192 0H18.0602L12.0875 15.0756L12.8697 17.0667L19.0557 1.52889H26.3437L27.0192 0Z" fill="white"/>
    </symbol>

    <symbol id="whatsapp" viewBox="0 0 56 56">
        <circle r="28" transform="matrix(1 0 0 -1 28 28)" fill="#57CA65"/>
        <path fill-rule="evenodd" clip-rule="evenodd" d="M26.8252 10.1301C26.7846 10.1465 26.5958 10.1777 26.4056 10.1995C22.9433 10.5959 19.7971 11.9204 17.1088 14.1134C16.5394 14.5779 15.2975 15.8122 14.8184 16.3898C14.1696 17.1721 13.4912 18.1385 13.0614 18.8929C12.7862 19.376 12.2137 20.5475 12.029 21.0054C11.3301 22.7384 10.8976 24.6529 10.7967 26.4602C10.7779 26.7968 10.7528 27.1398 10.7409 27.2226C10.6932 27.5541 10.8631 29.6136 11.0083 30.4639C11.3094 32.2275 11.8438 33.8132 12.7156 35.5297L13.1573 36.3995L13.1536 36.6661C13.1503 36.9026 13.1218 37.0119 12.9015 37.6327C12.6518 38.336 11.7373 41.033 10.8326 43.7337C10.3029 45.3151 10.2328 45.6141 10.3741 45.6897C10.4894 45.7514 10.764 45.6877 11.825 45.3532C12.3465 45.1888 13.0092 44.9798 13.2977 44.8889C13.5861 44.7979 14.2312 44.5929 14.7312 44.4332C15.2312 44.2736 15.9235 44.0532 16.2697 43.9435C16.6158 43.8338 17.3081 43.6138 17.8081 43.4545C19.5785 42.8904 19.6503 42.8726 19.9199 42.932C20.0084 42.9516 20.3009 43.0713 20.5698 43.198C23.1066 44.3935 25.7076 44.9792 28.455 44.9738C30.5716 44.9696 32.8897 44.5187 34.871 43.726C39.6339 41.8204 43.3762 37.8827 44.9893 33.0794C45.3467 32.0151 45.5887 30.9629 45.7469 29.7858C45.797 29.4129 45.8525 29.0696 45.8702 29.023C45.9134 28.9095 45.9116 26.1974 45.8682 26.0406C45.8496 25.9733 45.7941 25.6193 45.7449 25.2539C45.2926 21.8966 43.9071 18.8069 41.6915 16.215C40.9951 15.4003 40.235 14.6749 39.2328 13.8684C38.7587 13.4869 37.6507 12.7382 37.1088 12.4332C34.9577 11.2225 32.7748 10.506 30.3605 10.2181C30.1105 10.1883 29.8604 10.1486 29.8046 10.1299C29.6792 10.0878 26.9294 10.088 26.8252 10.1301ZM29.8285 12.9629C30.556 13.0438 30.7387 13.0716 31.3238 13.1905C33.643 13.6618 35.9047 14.7516 37.779 16.3008C39.5814 17.7907 41.1596 19.9379 42.0335 22.0894C42.8699 24.1484 43.2491 26.58 43.0532 28.6281C42.9081 30.1459 42.7305 30.9922 42.2829 32.2996C41.1937 35.4809 38.9155 38.2816 35.9716 40.0586C35.3716 40.4208 34.6059 40.8054 33.8745 41.1119C31.7783 41.9903 29.169 42.37 26.9229 42.1235C25.5467 41.9725 24.8908 41.8334 23.6822 41.4364C22.836 41.1583 22.1213 40.8537 21.3746 40.4527C20.3162 39.8844 20.3654 39.9046 20.0479 39.9075C19.7988 39.9097 19.6751 39.9391 18.9795 40.1608C15.0046 41.4279 15.0969 41.4016 14.9116 41.3172C14.7103 41.2255 14.704 41.015 14.8871 40.4993C14.9622 40.2878 15.2956 39.3043 15.628 38.3139C16.181 36.6662 16.2324 36.4923 16.2325 36.2684C16.2327 35.9814 16.2168 35.9462 15.7506 35.2019C14.7195 33.5557 14.0422 31.7235 13.7212 29.7121C13.6396 29.2008 13.5071 27.4069 13.5401 27.2601C13.5504 27.2144 13.5747 26.9067 13.5942 26.5762C13.6887 24.9771 14.0457 23.4603 14.6957 21.8971C15.3468 20.3311 16.4225 18.7148 17.7177 17.3563C18.0897 16.9661 18.9295 16.2378 19.4969 15.8133C20.7473 14.8778 22.2869 14.08 23.7697 13.5992C24.8204 13.2585 25.8163 13.0585 27.0913 12.9319C27.6932 12.8722 29.1625 12.8889 29.8285 12.9629ZM22.1806 19.6422C21.8398 19.7026 21.5087 19.9032 21.1473 20.268C20.3172 21.1059 19.9159 21.9931 19.7815 23.287C19.6622 24.4364 20.1365 26.0014 21.0239 27.3868C21.9178 28.7825 23.0721 30.2367 24.1193 31.2865C25.3867 32.557 26.5752 33.4385 27.9305 34.113C29.1799 34.7349 31.1553 35.44 32.2689 35.6616C33.5841 35.9233 35.1086 35.4845 36.2095 34.5274C36.689 34.1105 36.9251 33.7154 37.0938 33.0474C37.2287 32.513 37.26 32.0671 37.1815 31.7969C37.0843 31.4626 36.9409 31.3535 35.9346 30.8478C34.3235 30.0382 33.4758 29.675 33.1401 29.6506C32.7341 29.621 32.5986 29.7189 31.9903 30.4809C31.4752 31.1262 31.0635 31.5578 30.885 31.6396C30.6986 31.725 30.3945 31.7228 30.1234 31.634C29.7555 31.5134 28.5306 30.8873 28.0846 30.5918C26.7205 29.6881 25.6097 28.5785 24.72 27.2311C24.1561 26.3771 24.1591 26.1107 24.7405 25.4287C25.1127 24.9922 25.3354 24.6836 25.4578 24.4349C25.5588 24.2296 25.5701 24.1755 25.5681 23.9083C25.5655 23.5606 25.5816 23.6063 24.8208 21.7922C24.1 20.0735 24.0015 19.9012 23.6378 19.7226C23.4467 19.6288 23.4125 19.624 22.8955 19.6178C22.5975 19.6143 22.2757 19.6253 22.1806 19.6422ZM10.0984 45.8667C10.0984 45.8859 10.1229 45.9017 10.1529 45.9017C10.1829 45.9017 10.1977 45.8859 10.1858 45.8667C10.1739 45.8475 10.1494 45.8317 10.1313 45.8317C10.1132 45.8317 10.0984 45.8475 10.0984 45.8667Z" fill="white"/>
    </symbol>

    <symbol id="close-button" viewBox="0 0 16 15">
        <path d="M14.9316 1.24702C15.1561 1.03745 15.1561 0.697677 14.9316 0.488109C14.707 0.278541 14.343 0.278541 14.1184 0.488109L7.55 6.61824L0.981587 0.488109C0.757036 0.278541 0.392966 0.278541 0.168414 0.488109C-0.0561374 0.697677 -0.0561374 1.03745 0.168414 1.24702L6.73683 7.37715L0.168414 13.5073C-0.0561379 13.7169 -0.0561379 14.0566 0.168414 14.2662C0.392965 14.4758 0.757035 14.4758 0.981587 14.2662L7.55 8.13607L14.1184 14.2662C14.343 14.4758 14.707 14.4758 14.9316 14.2662C15.1561 14.0566 15.1561 13.7169 14.9316 13.5073L8.36318 7.37715L14.9316 1.24702Z" fill="#FF6500"/>
    </symbol>

    <symbol id="arrow-outline" viewBox="0 0 39 39">
        <path d="M19.7704 14.8161C20.1481 14.4132 20.7809 14.3928 21.1838 14.7705C21.5867 15.1483 21.6072 15.7811 21.2294 16.184L18.1206 19.5001L21.2294 22.8161C21.6072 23.219 21.5867 23.8519 21.1838 24.2296C20.7809 24.6073 20.1481 24.5869 19.7704 24.184L16.0204 20.184C15.6597 19.7993 15.6597 19.2008 16.0204 18.8161L19.7704 14.8161Z" fill="#FF6500"/>
        <path fill-rule="evenodd" clip-rule="evenodd" d="M19.4999 2.00006C9.8349 2.00006 1.99988 9.83507 1.99988 19.5001C1.99988 29.165 9.83489 37.0001 19.4999 37.0001C29.1649 37.0001 36.9999 29.165 36.9999 19.5001C36.9999 9.83508 29.1649 2.00006 19.4999 2.00006ZM19.4999 5.93304e-05C8.73033 5.83889e-05 -0.000119424 8.73051 -0.000120366 19.5001C-0.000121307 30.2696 8.73033 39.0001 19.4999 39.0001C30.2694 39.0001 38.9999 30.2696 38.9999 19.5001C38.9999 8.73051 30.2694 6.02719e-05 19.4999 5.93304e-05Z" fill="#FF6500"/>
    </symbol>

    <symbol id="gestion" viewBox="0 0 60 50">
        <title>Gestión-de-pedidos</title>
        <path d="M21 48C21 49.1046 21.8954 50 23 50H37C38.1046 50 39 49.1046 39 48V30C39 28.8954 38.1046 28 37 28H31V21C31 20.7348 30.8946 20.4804 30.7071 20.2929C30.5196 20.1054 30.2652 20 30 20C29.7348 20 29.4804 20.1054 29.2929 20.2929C29.1054 20.4804 29 20.7348 29 21V28H23C21.8954 28 21 28.8954 21 30V48ZM23 30H37V48H23V30Z" fill="#FF6500"/>
        <path d="M34 32H26C25.4477 32 25 32.4477 25 33C25 33.5523 25.4477 34 26 34H34C34.5523 34 35 33.5523 35 33C35 32.4477 34.5523 32 34 32Z" fill="#FF6500"/>
        <path d="M25 37C25 37.5523 25.4477 38 26 38C26.5523 38 27 37.5523 27 37C27 36.4477 26.5523 36 26 36C25.4477 36 25 36.4477 25 37Z" fill="#FF6500"/>
        <path d="M34 36H30C29.4477 36 29 36.4477 29 37C29 37.5523 29.4477 38 30 38H34C34.5523 38 35 37.5523 35 37C35 36.4477 34.5523 36 34 36Z" fill="#FF6500"/>
        <path d="M34 40H26C25.4477 40 25 40.4477 25 41C25 41.5523 25.4477 42 26 42H34C34.5523 42 35 41.5523 35 41C35 40.4477 34.5523 40 34 40Z" fill="#FF6500"/>
        <path d="M25 45C25 45.5523 25.4477 46 26 46C26.5523 46 27 45.5523 27 45C27 44.4477 26.5523 44 26 44C25.4477 44 25 44.4477 25 45Z" fill="#FF6500"/>
        <path d="M34 44H30C29.4477 44 29 44.4477 29 45C29 45.5523 29.4477 46 30 46H34C34.5523 46 35 45.5523 35 45C35 44.4477 34.5523 44 34 44Z" fill="#FF6500"/>
        <path d="M18 30C18 28.8954 17.1046 28 16 28H2C0.89543 28 0 28.8954 0 30V48C0 49.1046 0.895431 50 2 50H16C17.1046 50 18 49.1046 18 48V30ZM16 48H2V30H16V48Z" fill="#FF6500"/>
        <path d="M60 30C60 28.8954 59.1046 28 58 28H44C42.8954 28 42 28.8954 42 30V48C42 49.1046 42.8954 50 44 50H58C59.1046 50 60 49.1046 60 48V30ZM58 48H44V30H58V48Z" fill="#FF6500"/>
        <path d="M13 32H5C4.44772 32 4 32.4477 4 33C4 33.5523 4.44772 34 5 34H13C13.5523 34 14 33.5523 14 33C14 32.4477 13.5523 32 13 32Z" fill="#FF6500"/>
        <path d="M55 32H47C46.4477 32 46 32.4477 46 33C46 33.5523 46.4477 34 47 34H55C55.5523 34 56 33.5523 56 33C56 32.4477 55.5523 32 55 32Z" fill="#FF6500"/>
        <path d="M4 37C4 37.5523 4.44772 38 5 38C5.55228 38 6 37.5523 6 37C6 36.4477 5.55228 36 5 36C4.44772 36 4 36.4477 4 37Z" fill="#FF6500"/>
        <path d="M46 37C46 37.5523 46.4477 38 47 38C47.5523 38 48 37.5523 48 37C48 36.4477 47.5523 36 47 36C46.4477 36 46 36.4477 46 37Z" fill="#FF6500"/>
        <path d="M13 36H9C8.44772 36 8 36.4477 8 37C8 37.5523 8.44772 38 9 38H13C13.5523 38 14 37.5523 14 37C14 36.4477 13.5523 36 13 36Z" fill="#FF6500"/>
        <path d="M55 36H51C50.4477 36 50 36.4477 50 37C50 37.5523 50.4477 38 51 38H55C55.5523 38 56 37.5523 56 37C56 36.4477 55.5523 36 55 36Z" fill="#FF6500"/>
        <path d="M13 40H5C4.44772 40 4 40.4477 4 41C4 41.5523 4.44772 42 5 42H13C13.5523 42 14 41.5523 14 41C14 40.4477 13.5523 40 13 40Z" fill="#FF6500"/>
        <path d="M55 40H47C46.4477 40 46 40.4477 46 41C46 41.5523 46.4477 42 47 42H55C55.5523 42 56 41.5523 56 41C56 40.4477 55.5523 40 55 40Z" fill="#FF6500"/>
        <path d="M4 45C4 45.5523 4.44772 46 5 46C5.55228 46 6 45.5523 6 45C6 44.4477 5.55228 44 5 44C4.44772 44 4 44.4477 4 45Z" fill="#FF6500"/>
        <path d="M46 45C46 45.5523 46.4477 46 47 46C47.5523 46 48 45.5523 48 45C48 44.4477 47.5523 44 47 44C46.4477 44 46 44.4477 46 45Z" fill="#FF6500"/>
        <path d="M13 44H9C8.44772 44 8 44.4477 8 45C8 45.5523 8.44772 46 9 46H13C13.5523 46 14 45.5523 14 45C14 44.4477 13.5523 44 13 44Z" fill="#FF6500"/>
        <path d="M55 44H51C50.4477 44 50 44.4477 50 45C50 45.5523 50.4477 46 51 46H55C55.5523 46 56 45.5523 56 45C56 44.4477 55.5523 44 55 44Z" fill="#FF6500"/>
        <path d="M20 16H9C8.73478 16 8.48043 16.1054 8.29289 16.2929C8.10536 16.4804 8 16.7348 8 17V25C8 25.2652 8.10536 25.5196 8.29289 25.7071C8.48043 25.8946 8.73478 26 9 26C9.26522 26 9.51957 25.8946 9.70711 25.7071C9.89464 25.5196 10 25.2652 10 25V18H20C20.2652 18 20.5196 17.8946 20.7071 17.7071C20.8946 17.5196 21 17.2652 21 17C21 16.7348 20.8946 16.4804 20.7071 16.2929C20.5196 16.1054 20.2652 16 20 16Z" fill="#FF6500"/>
        <path d="M51 26C51.2652 26 51.5196 25.8946 51.7071 25.7071C51.8946 25.5196 52 25.2652 52 25V17C52 16.7348 51.8946 16.4804 51.7071 16.2929C51.5196 16.1054 51.2652 16 51 16H40C39.7348 16 39.4804 16.1054 39.2929 16.2929C39.1054 16.4804 39 16.7348 39 17C39 17.2652 39.1054 17.5196 39.2929 17.7071C39.4804 17.8946 39.7348 18 40 18H50V25C50 25.2652 50.1054 25.5196 50.2929 25.7071C50.4804 25.8946 50.7348 26 51 26Z" fill="#FF6500"/>
        <path fill-rule="evenodd" clip-rule="evenodd" d="M30 1C27.5463 1 25.5571 3.02673 25.5571 5.52683C25.5571 8.02693 27.5463 10.0537 30 10.0537C32.4538 10.0537 34.443 8.02693 34.443 5.52683C34.443 3.02673 32.4538 1 30 1ZM26.7717 5.52683C26.7717 3.71021 28.2171 2.23755 30 2.23755C31.783 2.23755 33.2284 3.71021 33.2284 5.52683C33.2284 7.34345 31.783 8.81611 30 8.81611C28.2171 8.81611 26.7717 7.34345 26.7717 5.52683Z" fill="#FF6500"/>
        <path d="M24.2146 17.3812C24.2146 15.3506 24.7854 13.9382 25.7338 13.028C26.6883 12.1117 28.1162 11.6168 29.9999 11.6168C31.8837 11.6168 33.3116 12.1117 34.2662 13.028C35.2146 13.9382 35.7854 15.3506 35.7854 17.3812C35.7854 17.723 36.0573 18 36.3927 18C36.7281 18 37 17.723 37 17.3812C37 15.113 36.3562 13.3338 35.0991 12.1272C33.8482 10.9265 32.0797 10.3793 29.9999 10.3793C27.9202 10.3793 26.1518 10.9265 24.9009 12.1272C23.6438 13.3338 23 15.113 23 17.3812C23 17.723 23.2719 18 23.6073 18C23.9427 18 24.2146 17.723 24.2146 17.3812Z" fill="#FF6500"/>
        <path fill-rule="evenodd" clip-rule="evenodd" d="M30 1.5C27.8312 1.5 26.0571 3.29401 26.0571 5.52683C26.0571 7.75964 27.8312 9.55366 30 9.55366C32.1689 9.55366 33.943 7.75964 33.943 5.52683C33.943 3.29401 32.1689 1.5 30 1.5ZM25.0571 5.52683C25.0571 2.75944 27.2613 0.5 30 0.5C32.7387 0.5 34.943 2.75944 34.943 5.52683C34.943 7.53644 33.7806 9.27819 32.0953 10.0814C33.3923 10.3498 34.5365 10.8942 35.4453 11.7664C36.8279 13.0935 37.5 15.0199 37.5 17.3812C37.5 17.9903 37.013 18.5 36.3927 18.5C35.7724 18.5 35.2854 17.9903 35.2854 17.3812C35.2854 15.4442 34.7431 14.1788 33.92 13.3887C33.087 12.5892 31.8005 12.1168 29.9999 12.1168C28.1994 12.1168 26.9129 12.5892 26.08 13.3887C25.2569 14.1787 24.7146 15.4442 24.7146 17.3812C24.7146 17.9903 24.2276 18.5 23.6073 18.5C22.987 18.5 22.5 17.9903 22.5 17.3812C22.5 15.0199 23.1721 13.0935 24.5546 11.7664C25.4634 10.8942 26.6076 10.3497 27.9047 10.0814C26.2194 9.27816 25.0571 7.53642 25.0571 5.52683ZM26.2717 5.52683C26.2717 3.44292 27.9322 1.73755 30 1.73755C32.0679 1.73755 33.7284 3.44292 33.7284 5.52683C33.7284 7.61073 32.0679 9.31611 30 9.31611C27.9322 9.31611 26.2717 7.61073 26.2717 5.52683ZM30 2.73755C28.502 2.73755 27.2717 3.97749 27.2717 5.52683C27.2717 7.07616 28.502 8.31611 30 8.31611C31.4981 8.31611 32.7284 7.07616 32.7284 5.52683C32.7284 3.97749 31.4981 2.73755 30 2.73755ZM29.9999 10.8793C28.003 10.8793 26.3762 11.4042 25.2471 12.4879C24.1155 13.5741 23.5 15.2061 23.5 17.3812C23.5 17.4557 23.5568 17.5 23.6073 17.5C23.6578 17.5 23.7146 17.4557 23.7146 17.3812C23.7146 15.257 24.314 13.6977 25.3875 12.6672C26.4637 11.6343 28.033 11.1168 29.9999 11.1168C31.9669 11.1168 33.5362 11.6343 34.6124 12.6672C35.686 13.6977 36.2854 15.257 36.2854 17.3812C36.2854 17.4557 36.3422 17.5 36.3927 17.5C36.4432 17.5 36.5 17.4557 36.5 17.3812C36.5 15.2061 35.8845 13.5741 34.7528 12.4879C33.6238 11.4042 31.9969 10.8793 29.9999 10.8793Z" fill="#FF6500"/>
    </symbol>

    <symbol id="comillas" viewBox="0 0 30 24">
        <title>Comillas</title>
        <path d="M0.980713 19.128C0.980713 15.416 2.10071 11.992 4.34071 8.85601C6.58071 5.72001 9.14071 3.09601 12.0207 0.984009L14.3247 3.67201C11.2527 6.55201 9.71671 9.43201 9.71671 12.312C9.71671 13.144 9.90871 14.232 10.2927 15.576C10.6767 16.92 10.8687 18.168 10.8687 19.32C10.8687 20.408 10.4207 21.464 9.52471 22.488C8.62871 23.448 7.41271 23.928 5.87671 23.928C4.34071 23.928 3.12471 23.48 2.22871 22.584C1.39671 21.624 0.980713 20.472 0.980713 19.128ZM16.6287 19.128C16.6287 15.416 17.7487 11.992 19.9887 8.85601C22.2287 5.72001 24.7887 3.09601 27.6687 0.984009L29.8767 3.67201C26.8687 6.48801 25.3647 9.36801 25.3647 12.312C25.3647 13.144 25.5567 14.232 25.9407 15.576C26.3247 16.92 26.5167 18.168 26.5167 19.32C26.5167 20.408 26.0687 21.464 25.1727 22.488C24.2767 23.448 23.0287 23.928 21.4287 23.928C19.8927 23.928 18.7087 23.48 17.8767 22.584C17.0447 21.624 16.6287 20.472 16.6287 19.128Z" fill="#FF6500"/>
    </symbol>

    <symbol id="miscelanea" viewBox="0 0 74 73">
        <path fill-rule="evenodd" clip-rule="evenodd" d="M72.9072 1.17656C71.3381 -0.392186 68.8724 -0.392186 67.3033 1.17656L2.29762 66.1674C0.728513 67.7361 0.728513 70.2013 2.29762 71.7701C3.08217 72.5544 4.09088 72.8906 5.09958 72.8906C6.10829 72.8906 7.117 72.5544 7.90155 71.7701L72.9072 6.77922C74.3643 5.32253 74.3643 2.7453 72.9072 1.17656Z" fill="#FF6500"/>
        <path fill-rule="evenodd" clip-rule="evenodd" d="M3.9788 45.9978C4.98751 45.9978 5.99622 45.6617 6.78077 44.8773L37.042 14.623C38.6112 13.0542 38.6112 10.5891 37.042 9.02031C35.4729 7.45156 33.0072 7.45156 31.4381 9.02031L1.17683 39.2746C-0.392276 40.8434 -0.392276 43.3086 1.17683 44.8773C1.96138 45.6617 2.97009 45.9978 3.9788 45.9978Z" fill="#FF6500"/>
    </symbol>
</svg>