<svg xmlns="http://www.w3.org/2000/svg" width="112.4454" height="47.8417" viewBox="0 0 112.4454 47.8417"><defs><style>.a,.b{fill:#ff6500;}.a{fill-rule:evenodd;}</style></defs><title>Logo-100px</title><polygon class="a" points="6.223 8.858 12.85 8.858 21.286 29.88 29.721 8.858 36.348 8.858 21.286 42.749 6.223 8.858"/><rect class="b" x="39.6955" y="8.8581" width="5.4393" height="33.0544"/><path class="a" d="M97.4442,36.743H84.8771l-2.4537,6.0063H76.0972L91.1609,8.8581l15.0618,33.8912H99.8964Zm-2.1523-5.2336-4.131-10.0383L87.0283,31.5094Z"/><path class="a" d="M65.93,42.7493a15.7471,15.7471,0,0,0,7.6571-1.9478V33.79a10.3315,10.3315,0,0,1-7.7851,3.2452,11.2093,11.2093,0,0,1-11.2242-9.7669H48.9005A17.0165,17.0165,0,0,0,65.93,42.7493Z"/><path class="a" d="M65.8462,14.5708a10.6634,10.6634,0,0,1,7.74,3.202V10.8044a15.7552,15.7552,0,0,0-7.6552-1.9463,16.9759,16.9759,0,0,0-17.031,15.4811h5.6831A11.2551,11.2551,0,0,1,65.8462,14.5708Z"/><polygon class="a" points="38.022 5.092 27.498 5.092 27.498 5.095 27.495 5.095 20.449 22.814 21.389 25.176 28.666 6.875 37.241 6.875 38.022 5.095 38.022 5.092"/></svg>