<svg width="74" height="73" viewBox="0 0 74 73" fill="none" xmlns="http://www.w3.org/2000/svg">
<path fill-rule="evenodd" clip-rule="evenodd" d="M72.9072 1.17656C71.3381 -0.392186 68.8724 -0.392186 67.3033 1.17656L2.29762 66.1674C0.728513 67.7361 0.728513 70.2013 2.29762 71.7701C3.08217 72.5544 4.09088 72.8906 5.09958 72.8906C6.10829 72.8906 7.117 72.5544 7.90155 71.7701L72.9072 6.77922C74.3643 5.32253 74.3643 2.7453 72.9072 1.17656Z" fill="#FF6500"/>
<path fill-rule="evenodd" clip-rule="evenodd" d="M3.9788 45.9978C4.98751 45.9978 5.99622 45.6617 6.78077 44.8773L37.042 14.623C38.6112 13.0542 38.6112 10.5891 37.042 9.02031C35.4729 7.45156 33.0072 7.45156 31.4381 9.02031L1.17683 39.2746C-0.392276 40.8434 -0.392276 43.3086 1.17683 44.8773C1.96138 45.6617 2.97009 45.9978 3.9788 45.9978Z" fill="#FF6500"/>
</svg>
