<svg width="1022" height="1020" viewBox="0 0 1022 1020" fill="none" xmlns="http://www.w3.org/2000/svg">
<mask id="mask0" mask-type="alpha" maskUnits="userSpaceOnUse" x="0" y="0" width="1022" height="1020">
<path fill-rule="evenodd" clip-rule="evenodd" d="M120.535 1020C151.093 1020 181.651 1009.82 205.419 986.057L986.349 205.358C1033.88 157.837 1033.88 83.1614 986.349 35.6406C938.814 -11.8802 864.116 -11.8802 816.581 35.6406L35.6512 816.339C-11.8837 863.86 -11.8837 938.536 35.6512 986.057C59.4186 1009.82 89.9767 1020 120.535 1020Z" fill="#FF6500"/>
</mask>
<g mask="url(#mask0)">
<path fill-rule="evenodd" clip-rule="evenodd" d="M563.194 543.827C565.018 543.827 566.842 543.219 568.261 541.801L685.805 424.284C688.642 421.447 688.642 416.99 685.805 414.153C682.967 411.317 678.509 411.317 675.672 414.153L558.128 531.67C555.291 534.507 555.291 538.964 558.128 541.801C559.547 543.219 561.371 543.827 563.194 543.827Z" fill="#F7F7F7"/>
<path fill-rule="evenodd" clip-rule="evenodd" d="M282.194 869.827C284.018 869.827 285.842 869.219 287.261 867.801L404.805 750.284C407.642 747.447 407.642 742.99 404.805 740.153C401.967 737.317 397.509 737.317 394.672 740.153L277.128 857.67C274.291 860.507 274.291 864.964 277.128 867.801C278.547 869.219 280.371 869.827 282.194 869.827Z" fill="#F7F7F7"/>
<path fill-rule="evenodd" clip-rule="evenodd" d="M897.194 215.827C899.018 215.827 900.842 215.219 902.261 213.801L1019.8 96.2841C1022.64 93.4475 1022.64 88.99 1019.8 86.1533C1016.97 83.3167 1012.51 83.3167 1009.67 86.1533L892.128 203.67C889.291 206.507 889.291 210.964 892.128 213.801C893.547 215.219 895.371 215.827 897.194 215.827Z" fill="#F7F7F7"/>
<path fill-rule="evenodd" clip-rule="evenodd" d="M-51.8055 1034.83C-49.9816 1034.83 -48.1576 1034.22 -46.739 1032.8L70.8048 915.284C73.642 912.447 73.642 907.99 70.8048 905.153C67.9675 902.317 63.5089 902.317 60.6717 905.153L-56.8721 1022.67C-59.7093 1025.51 -59.7093 1029.96 -56.8721 1032.8C-55.4534 1034.22 -53.6295 1034.83 -51.8055 1034.83Z" fill="#F7F7F7"/>
<path fill-rule="evenodd" clip-rule="evenodd" d="M563.194 380.827C565.018 380.827 566.842 380.219 568.261 378.801L685.805 261.284C688.642 258.447 688.642 253.99 685.805 251.153C682.967 248.317 678.509 248.317 675.672 251.153L558.128 368.67C555.291 371.507 555.291 375.964 558.128 378.801C559.547 380.219 561.371 380.827 563.194 380.827Z" fill="#F7F7F7"/>
<path fill-rule="evenodd" clip-rule="evenodd" d="M282.194 706.827C284.018 706.827 285.842 706.219 287.261 704.801L404.805 587.284C407.642 584.447 407.642 579.99 404.805 577.153C401.967 574.317 397.509 574.317 394.672 577.153L277.128 694.67C274.291 697.507 274.291 701.964 277.128 704.801C278.547 706.219 280.371 706.827 282.194 706.827Z" fill="#F7F7F7"/>
<path fill-rule="evenodd" clip-rule="evenodd" d="M897.194 52.8272C899.018 52.8272 900.842 52.2194 902.261 50.8011L1019.8 -66.7159C1022.64 -69.5525 1022.64 -74.01 1019.8 -76.8467C1016.97 -79.6833 1012.51 -79.6833 1009.67 -76.8467L892.128 40.6703C889.291 43.5069 889.291 47.9644 892.128 50.8011C893.547 52.2194 895.371 52.8272 897.194 52.8272Z" fill="#F7F7F7"/>
<path fill-rule="evenodd" clip-rule="evenodd" d="M115.194 869.827C117.018 869.827 118.842 869.219 120.261 867.801L237.805 750.284C240.642 747.447 240.642 742.99 237.805 740.153C234.967 737.317 230.509 737.317 227.672 740.153L110.128 857.67C107.291 860.507 107.291 864.964 110.128 867.801C111.547 869.219 113.371 869.827 115.194 869.827Z" fill="#F7F7F7"/>
<path fill-rule="evenodd" clip-rule="evenodd" d="M730.194 215.827C732.018 215.827 733.842 215.219 735.261 213.801L852.805 96.2841C855.642 93.4475 855.642 88.99 852.805 86.1533C849.967 83.3167 845.509 83.3167 842.672 86.1533L725.128 203.67C722.291 206.507 722.291 210.964 725.128 213.801C726.547 215.219 728.371 215.827 730.194 215.827Z" fill="#F7F7F7"/>
<path fill-rule="evenodd" clip-rule="evenodd" d="M449.194 543.827C451.018 543.827 452.842 543.219 454.261 541.801L571.805 424.284C574.642 421.447 574.642 416.99 571.805 414.153C568.967 411.317 564.509 411.317 561.672 414.153L444.128 531.67C441.291 534.507 441.291 538.964 444.128 541.801C445.547 543.219 447.371 543.827 449.194 543.827Z" fill="#F7F7F7"/>
<path fill-rule="evenodd" clip-rule="evenodd" d="M115.194 1034.83C117.018 1034.83 118.842 1034.22 120.261 1032.8L237.805 915.284C240.642 912.447 240.642 907.99 237.805 905.153C234.967 902.317 230.509 902.317 227.672 905.153L110.128 1022.67C107.291 1025.51 107.291 1029.96 110.128 1032.8C111.547 1034.22 113.371 1034.83 115.194 1034.83Z" fill="#F7F7F7"/>
<path fill-rule="evenodd" clip-rule="evenodd" d="M730.194 380.827C732.018 380.827 733.842 380.219 735.261 378.801L852.805 261.284C855.642 258.447 855.642 253.99 852.805 251.153C849.967 248.317 845.509 248.317 842.672 251.153L725.128 368.67C722.291 371.507 722.291 375.964 725.128 378.801C726.547 380.219 728.371 380.827 730.194 380.827Z" fill="#F7F7F7"/>
<path fill-rule="evenodd" clip-rule="evenodd" d="M449.194 706.827C451.018 706.827 452.842 706.219 454.261 704.801L571.805 587.284C574.642 584.447 574.642 579.99 571.805 577.153C568.967 574.317 564.509 574.317 561.672 577.153L444.128 694.67C441.291 697.507 441.291 701.964 444.128 704.801C445.547 706.219 447.371 706.827 449.194 706.827Z" fill="#F7F7F7"/>
<path fill-rule="evenodd" clip-rule="evenodd" d="M291.314 639.964C292.733 641.383 294.557 641.99 296.381 641.99C298.205 641.99 300.029 641.383 301.447 639.964L356.166 585.258C359.003 582.422 359.003 577.964 356.166 575.127C353.329 572.291 348.87 572.291 346.033 575.127L291.314 629.834C288.68 632.67 288.68 637.128 291.314 639.964Z" fill="#F7F7F7"/>
<path fill-rule="evenodd" clip-rule="evenodd" d="M124.314 967.964C125.733 969.383 127.557 969.99 129.381 969.99C131.205 969.99 133.029 969.383 134.447 967.964L189.166 913.258C192.003 910.422 192.003 905.964 189.166 903.127C186.329 900.291 181.87 900.291 179.033 903.127L124.314 957.834C121.68 960.67 121.68 965.128 124.314 967.964Z" fill="#F7F7F7"/>
<path fill-rule="evenodd" clip-rule="evenodd" d="M739.314 313.964C740.733 315.383 742.557 315.99 744.381 315.99C746.205 315.99 748.029 315.383 749.447 313.964L804.166 259.258C807.003 256.422 807.003 251.964 804.166 249.127C801.329 246.291 796.87 246.291 794.033 249.127L739.314 303.834C736.68 306.67 736.68 311.128 739.314 313.964Z" fill="#F7F7F7"/>
<path fill-rule="evenodd" clip-rule="evenodd" d="M458.314 639.964C459.733 641.383 461.557 641.99 463.381 641.99C465.205 641.99 467.029 641.383 468.447 639.964L523.166 585.258C526.003 582.422 526.003 577.964 523.166 575.127C520.329 572.291 515.87 572.291 513.033 575.127L458.314 629.834C455.68 632.67 455.68 637.128 458.314 639.964Z" fill="#F7F7F7"/>
<path fill-rule="evenodd" clip-rule="evenodd" d="M24.1925 910.351L70.8047 863.749C73.642 860.912 73.642 856.455 70.8047 853.618C67.9674 850.782 63.5089 850.782 60.6716 853.618L14.0595 900.22C11.2222 903.056 11.2222 907.514 14.0595 910.351C15.4781 911.769 17.302 912.377 19.126 912.377C20.95 912.377 22.7739 911.769 24.1925 910.351Z" fill="#F7F7F7"/>
<path fill-rule="evenodd" clip-rule="evenodd" d="M639.193 256.351L685.805 209.749C688.642 206.912 688.642 202.455 685.805 199.618C682.968 196.782 678.509 196.782 675.672 199.618L629.06 246.22C626.222 249.056 626.222 253.514 629.06 256.351C630.478 257.769 632.302 258.377 634.126 258.377C635.95 258.377 637.774 257.769 639.193 256.351Z" fill="#F7F7F7"/>
<path fill-rule="evenodd" clip-rule="evenodd" d="M639.193 421.351L685.805 374.749C688.642 371.912 688.642 367.455 685.805 364.618C682.968 361.782 678.509 361.782 675.672 364.618L629.06 411.22C626.222 414.056 626.222 418.514 629.06 421.351C630.478 422.769 632.302 423.377 634.126 423.377C635.95 423.377 637.774 422.769 639.193 421.351Z" fill="#F7F7F7"/>
<path fill-rule="evenodd" clip-rule="evenodd" d="M358.193 747.351L404.805 700.749C407.642 697.912 407.642 693.455 404.805 690.618C401.968 687.782 397.509 687.782 394.672 690.618L348.06 737.22C345.222 740.056 345.222 744.514 348.06 747.351C349.478 748.769 351.302 749.377 353.126 749.377C354.95 749.377 356.774 748.769 358.193 747.351Z" fill="#F7F7F7"/>
<path fill-rule="evenodd" clip-rule="evenodd" d="M973.193 93.3506L1019.8 46.749C1022.64 43.9123 1022.64 39.4548 1019.8 36.6182C1016.97 33.7816 1012.51 33.7816 1009.67 36.6182L963.06 83.2198C960.222 86.0564 960.222 90.5139 963.06 93.3506C964.478 94.7689 966.302 95.3767 968.126 95.3767C969.95 95.3767 971.774 94.7689 973.193 93.3506Z" fill="#F7F7F7"/>
<path fill-rule="evenodd" clip-rule="evenodd" d="M191.193 747.351L237.805 700.749C240.642 697.912 240.642 693.455 237.805 690.618C234.967 687.782 230.509 687.782 227.672 690.618L181.059 737.22C178.222 740.056 178.222 744.514 181.059 747.351C182.478 748.769 184.302 749.377 186.126 749.377C187.95 749.377 189.774 748.769 191.193 747.351Z" fill="#F7F7F7"/>
<path fill-rule="evenodd" clip-rule="evenodd" d="M806.193 93.3506L852.805 46.749C855.642 43.9123 855.642 39.4548 852.805 36.6182C849.968 33.7816 845.509 33.7816 842.672 36.6182L796.06 83.2198C793.222 86.0564 793.222 90.5139 796.06 93.3506C797.478 94.7689 799.302 95.3767 801.126 95.3767C802.95 95.3767 804.774 94.7689 806.193 93.3506Z" fill="#F7F7F7"/>
<path fill-rule="evenodd" clip-rule="evenodd" d="M1.89981 867.801C3.31844 869.219 5.1424 869.827 6.96635 869.827C8.7903 869.827 10.6143 869.219 12.0329 867.801L93.0975 786.755C95.9348 783.918 95.9348 779.461 93.0975 776.827C90.2603 773.99 85.8017 773.99 83.1671 776.827L2.10247 857.873C-0.734794 860.507 -0.734791 864.965 1.89981 867.801Z" fill="#F7F7F7"/>
<path fill-rule="evenodd" clip-rule="evenodd" d="M616.9 541.801C618.318 543.219 620.142 543.827 621.966 543.827C623.79 543.827 625.614 543.219 627.033 541.801L708.098 460.755C710.935 457.918 710.935 453.461 708.098 450.827C705.26 447.99 700.802 447.99 698.167 450.827L617.102 531.873C614.265 534.507 614.265 538.965 616.9 541.801Z" fill="#F7F7F7"/>
<path fill-rule="evenodd" clip-rule="evenodd" d="M950.9 213.801C952.318 215.219 954.142 215.827 955.966 215.827C957.79 215.827 959.614 215.219 961.033 213.801L1042.1 132.755C1044.93 129.918 1044.93 125.461 1042.1 122.827C1039.26 119.99 1034.8 119.99 1032.17 122.827L951.102 203.873C948.265 206.507 948.265 210.965 950.9 213.801Z" fill="#F7F7F7"/>
<path fill-rule="evenodd" clip-rule="evenodd" d="M335.9 541.801C337.318 543.219 339.142 543.827 340.966 543.827C342.79 543.827 344.614 543.219 346.033 541.801L427.098 460.755C429.935 457.918 429.935 453.461 427.098 450.827C424.26 447.99 419.802 447.99 417.167 450.827L336.102 531.873C333.265 534.507 333.265 538.965 335.9 541.801Z" fill="#F7F7F7"/>
<path fill-rule="evenodd" clip-rule="evenodd" d="M1.89981 1032.8C3.31844 1034.22 5.1424 1034.83 6.96635 1034.83C8.7903 1034.83 10.6143 1034.22 12.0329 1032.8L93.0975 951.755C95.9348 948.918 95.9348 944.461 93.0975 941.827C90.2603 938.99 85.8017 938.99 83.1671 941.827L2.10247 1022.87C-0.734794 1025.51 -0.734791 1029.96 1.89981 1032.8Z" fill="#F7F7F7"/>
<path fill-rule="evenodd" clip-rule="evenodd" d="M616.9 378.801C618.318 380.219 620.142 380.827 621.966 380.827C623.79 380.827 625.614 380.219 627.033 378.801L708.098 297.755C710.935 294.918 710.935 290.461 708.098 287.827C705.26 284.99 700.802 284.99 698.167 287.827L617.102 368.873C614.265 371.507 614.265 375.965 616.9 378.801Z" fill="#F7F7F7"/>
<path fill-rule="evenodd" clip-rule="evenodd" d="M335.9 704.801C337.318 706.219 339.142 706.827 340.966 706.827C342.79 706.827 344.614 706.219 346.033 704.801L427.098 623.755C429.935 620.918 429.935 616.461 427.098 613.827C424.26 610.99 419.802 610.99 417.167 613.827L336.102 694.873C333.265 697.507 333.265 701.965 335.9 704.801Z" fill="#F7F7F7"/>
<path fill-rule="evenodd" clip-rule="evenodd" d="M950.9 50.8012C952.318 52.2195 954.142 52.8273 955.966 52.8273C957.79 52.8273 959.614 52.2195 961.033 50.8012L1042.1 -30.2449C1044.93 -33.0816 1044.93 -37.5391 1042.1 -40.1731C1039.26 -43.0097 1034.8 -43.0097 1032.17 -40.1731L951.102 40.873C948.265 43.507 948.265 47.9646 950.9 50.8012Z" fill="#F7F7F7"/>
<path fill-rule="evenodd" clip-rule="evenodd" d="M168.9 867.801C170.318 869.219 172.142 869.827 173.966 869.827C175.79 869.827 177.614 869.219 179.033 867.801L260.098 786.755C262.935 783.918 262.935 779.461 260.098 776.827C257.26 773.99 252.802 773.99 250.167 776.827L169.102 857.873C166.265 860.507 166.265 864.965 168.9 867.801Z" fill="#F7F7F7"/>
<path fill-rule="evenodd" clip-rule="evenodd" d="M783.9 213.801C785.318 215.219 787.142 215.827 788.966 215.827C790.79 215.827 792.614 215.219 794.033 213.801L875.098 132.755C877.935 129.918 877.935 125.461 875.098 122.827C872.26 119.99 867.802 119.99 865.167 122.827L784.102 203.873C781.265 206.507 781.265 210.965 783.9 213.801Z" fill="#F7F7F7"/>
<path fill-rule="evenodd" clip-rule="evenodd" d="M241.951 850.102C243.37 851.52 245.194 852.128 247.018 852.128C248.842 852.128 250.666 851.52 252.084 850.102L333.149 769.056C335.986 766.219 335.986 761.761 333.149 759.127C330.312 756.291 325.853 756.291 323.219 759.127L242.154 840.174C239.317 842.808 239.317 847.265 241.951 850.102Z" fill="#F7F7F7"/>
<path fill-rule="evenodd" clip-rule="evenodd" d="M856.951 196.102C858.37 197.52 860.194 198.128 862.018 198.128C863.842 198.128 865.666 197.52 867.084 196.102L948.149 115.056C950.986 112.219 950.986 107.761 948.149 105.127C945.312 102.291 940.853 102.291 938.219 105.127L857.154 186.174C854.317 188.808 854.317 193.265 856.951 196.102Z" fill="#F7F7F7"/>
<path fill-rule="evenodd" clip-rule="evenodd" d="M502.9 541.801C504.318 543.219 506.142 543.827 507.966 543.827C509.79 543.827 511.614 543.219 513.033 541.801L594.098 460.755C596.935 457.918 596.935 453.461 594.098 450.827C591.26 447.99 586.802 447.99 584.167 450.827L503.102 531.873C500.265 534.507 500.265 538.965 502.9 541.801Z" fill="#F7F7F7"/>
<path fill-rule="evenodd" clip-rule="evenodd" d="M168.9 704.801C170.318 706.219 172.142 706.827 173.966 706.827C175.79 706.827 177.614 706.219 179.033 704.801L260.098 623.755C262.935 620.918 262.935 616.461 260.098 613.827C257.26 610.99 252.802 610.99 250.167 613.827L169.102 694.873C166.265 697.507 166.265 701.965 168.9 704.801Z" fill="#F7F7F7"/>
<path fill-rule="evenodd" clip-rule="evenodd" d="M783.9 378.801C785.318 380.219 787.142 380.827 788.966 380.827C790.79 380.827 792.614 380.219 794.033 378.801L875.098 297.755C877.935 294.918 877.935 290.461 875.098 287.827C872.26 284.99 867.802 284.99 865.167 287.827L784.102 368.873C781.265 371.507 781.265 375.965 783.9 378.801Z" fill="#F7F7F7"/>
<path fill-rule="evenodd" clip-rule="evenodd" d="M502.9 378.801C504.318 380.219 506.142 380.827 507.966 380.827C509.79 380.827 511.614 380.219 513.033 378.801L594.098 297.755C596.935 294.918 596.935 290.461 594.098 287.827C591.26 284.99 586.802 284.99 584.167 287.827L503.102 368.873C500.265 371.507 500.265 375.965 502.9 378.801Z" fill="#F7F7F7"/>
<path fill-rule="evenodd" clip-rule="evenodd" d="M928.404 230.01L900.234 258.174C897.397 261.011 897.397 265.671 900.234 268.507C901.653 269.926 903.477 270.534 905.301 270.534C907.125 270.534 908.949 269.926 910.367 268.507L938.74 240.344C941.577 237.507 941.577 232.847 938.74 230.01C935.903 227.376 931.242 227.376 928.404 230.01Z" fill="#F7F7F7"/>
<path fill-rule="evenodd" clip-rule="evenodd" d="M313.404 558.01L285.234 586.174C282.397 589.011 282.397 593.671 285.234 596.507C286.653 597.926 288.477 598.534 290.301 598.534C292.125 598.534 293.949 597.926 295.367 596.507L323.74 568.344C326.577 565.507 326.577 560.847 323.74 558.01C320.903 555.376 316.242 555.376 313.404 558.01Z" fill="#F7F7F7"/>
<path fill-rule="evenodd" clip-rule="evenodd" d="M313.404 721.01L285.234 749.174C282.397 752.011 282.397 756.671 285.234 759.507C286.653 760.926 288.477 761.534 290.301 761.534C292.125 761.534 293.949 760.926 295.367 759.507L323.74 731.344C326.577 728.507 326.577 723.847 323.74 721.01C320.903 718.376 316.242 718.376 313.404 721.01Z" fill="#F7F7F7"/>
<path fill-rule="evenodd" clip-rule="evenodd" d="M928.404 67.0104L900.234 95.174C897.397 98.0106 897.397 102.671 900.234 105.507C901.653 106.926 903.477 107.534 905.301 107.534C907.125 107.534 908.949 106.926 910.367 105.507L938.74 77.3438C941.577 74.5072 941.577 69.847 938.74 67.0104C935.903 64.3764 931.242 64.3764 928.404 67.0104Z" fill="#F7F7F7"/>
<path fill-rule="evenodd" clip-rule="evenodd" d="M146.404 884.01L118.234 912.174C115.397 915.011 115.397 919.671 118.234 922.507C119.653 923.926 121.477 924.534 123.301 924.534C125.125 924.534 126.949 923.926 128.367 922.507L156.74 894.344C159.577 891.507 159.577 886.847 156.74 884.01C153.903 881.376 149.242 881.376 146.404 884.01Z" fill="#F7F7F7"/>
<path fill-rule="evenodd" clip-rule="evenodd" d="M761.404 230.01L733.234 258.174C730.397 261.011 730.397 265.671 733.234 268.507C734.653 269.926 736.477 270.534 738.301 270.534C740.125 270.534 741.949 269.926 743.367 268.507L771.74 240.344C774.577 237.507 774.577 232.847 771.74 230.01C768.903 227.376 764.242 227.376 761.404 230.01Z" fill="#F7F7F7"/>
<path fill-rule="evenodd" clip-rule="evenodd" d="M480.404 558.01L452.234 586.174C449.397 589.011 449.397 593.671 452.234 596.507C453.653 597.926 455.477 598.534 457.301 598.534C459.125 598.534 460.949 597.926 462.367 596.507L490.74 568.344C493.577 565.507 493.577 560.847 490.74 558.01C487.903 555.376 483.242 555.376 480.404 558.01Z" fill="#F7F7F7"/>
<path fill-rule="evenodd" clip-rule="evenodd" d="M146.404 721.01L118.234 749.174C115.397 752.011 115.397 756.671 118.234 759.507C119.653 760.926 121.477 761.534 123.301 761.534C125.125 761.534 126.949 760.926 128.367 759.507L156.74 731.344C159.577 728.507 159.577 723.847 156.74 721.01C153.903 718.376 149.242 718.376 146.404 721.01Z" fill="#F7F7F7"/>
<path fill-rule="evenodd" clip-rule="evenodd" d="M761.404 395.01L733.234 423.174C730.397 426.011 730.397 430.671 733.234 433.507C734.653 434.926 736.477 435.534 738.301 435.534C740.125 435.534 741.949 434.926 743.367 433.507L771.74 405.344C774.577 402.507 774.577 397.847 771.74 395.01C768.903 392.376 764.242 392.376 761.404 395.01Z" fill="#F7F7F7"/>
<path fill-rule="evenodd" clip-rule="evenodd" d="M480.404 395.01L452.234 423.174C449.397 426.011 449.397 430.671 452.234 433.507C453.653 434.926 455.477 435.534 457.301 435.534C459.125 435.534 460.949 434.926 462.367 433.507L490.74 405.344C493.577 402.507 493.577 397.847 490.74 395.01C487.903 392.376 483.242 392.376 480.404 395.01Z" fill="#F7F7F7"/>
</g>
</svg>
